<svg xmlns="http://www.w3.org/2000/svg" width="31" height="27" viewBox="0 0 31 27">
    <path fill="#FFF" fill-rule="evenodd" d="M15.5 8.4a6.374 6.374 0 0 1 6.375 6.375A6.374 6.374 0 0 1 15.5 21.15a6.374 6.374 0 0 1-6.375-6.375A6.374 6.374 0 0 1 15.5 8.4zm12.75 17.85c1.41 0 2.55-1.14 2.55-2.55V8.4c0-1.41-1.14-2.55-2.55-2.55h-3.524a2.546 2.546 0 0 1-2.28-1.41l-1.142-2.28a2.546 2.546 0 0 0-2.28-1.41h-7.048c-.967 0-1.849.546-2.28 1.41L8.554 4.44a2.546 2.546 0 0 1-2.28 1.41H2.75C1.34 5.85.2 6.99.2 8.4v15.3c0 1.41 1.14 2.55 2.55 2.55h25.5z"/>
</svg>
