<svg xmlns="http://www.w3.org/2000/svg" width="50" height="48" viewBox="0 0 50 48"><g fill="none" fill-rule="evenodd"><path fill="#22C064" d="M4.11 33.606l4.82-4.823-.801-.802a1.134 1.134 0 0 1 0-1.61L27.413 7.089c.288-.289.627-.332.802-.332.177 0 .516.043.805.332l.804.804 4.82-4.822-.802-.803c-3.007-3.007-8.247-3.004-11.25-.002L3.308 21.551a7.886 7.886 0 0 0-2.332 5.623c0 2.125.828 4.123 2.332 5.627l.802.805zM45.893 14.32l-4.82 4.82.804.807a1.139 1.139 0 0 1 0 1.605L22.591 40.836a1.13 1.13 0 0 1-1.607 0l-.805-.803-4.82 4.823.804.802a7.903 7.903 0 0 0 5.625 2.33c2.125 0 4.12-.827 5.625-2.33l19.284-19.286c3.1-3.105 3.1-8.148 0-11.248l-.804-.804z"/><path fill="#FFF" d="M30.626 23.159l-4.82-4.823 16.07-16.07 4.82 4.822zM8.128 45.657l-4.82-4.82 16.07-16.07 4.82 4.82z"/></g></svg>