<svg xmlns="http://www.w3.org/2000/svg" width="55" height="50" viewBox="0 0 55 50"><g fill="none" fill-rule="evenodd"><path fill="#22C064" d="M17.5 30h10V20h-10zm-5-10H.505a24.958 24.958 0 0 0 0 10H12.5V20zm5-5h10V0H25c-2.613 0-5.13.407-7.5 1.153V15zm0 20v13.847A24.964 24.964 0 0 0 25 50h2.5V35h-10zm-5-20V3.383A25.132 25.132 0 0 0 2.102 15H12.5zm0 20H2.102A25.102 25.102 0 0 0 12.5 46.615V35z"/><path fill="#FFF" d="M50 7.5C50 3.365 46.635 0 42.5 0S35 3.365 35 7.5s3.365 7.5 7.5 7.5S50 11.635 50 7.5M42.5 15C35.608 15 30 20.608 30 27.5V35a2.5 2.5 0 0 0 2.5 2.5H35v10a2.5 2.5 0 0 0 2.5 2.5h10a2.5 2.5 0 0 0 2.5-2.5v-10h2.5A2.5 2.5 0 0 0 55 35v-7.5C55 20.608 49.392 15 42.5 15"/></g></svg>