<svg xmlns="http://www.w3.org/2000/svg" width="43" height="50" viewBox="0 0 43 50"><g fill="#FFF" fill-rule="evenodd"><path d="M16.667 30.952H7.143V26.19h9.524v4.762zm-4.762-16.666C5.34 14.286 0 19.626 0 26.19v14.286a2.382 2.382 0 0 0 2.381 2.381h19.048a2.382 2.382 0 0 0 2.38-2.38V26.19c0-6.564-5.34-11.904-11.904-11.904z"/><path d="M30.952 7.143h7.143V0H26.19v14.286h-6.404c3.854 2.56 6.404 6.938 6.404 11.904V50h4.762v-7.143h9.524a2.382 2.382 0 0 0 2.381-2.38V26.19c0-6.564-5.34-11.904-11.905-11.904V7.143z"/></g></svg>