<svg xmlns="http://www.w3.org/2000/svg" width="49" height="49" viewBox="0 0 49 49"><g fill="none" fill-rule="evenodd"><path fill="#FFF" d="M18.75 20.833c3.273 0 6.017-.256 8.33-.658a14.452 14.452 0 0 1 5.176-1.37c3.786-1.46 5.244-3.322 5.244-4.222V10.35c-3.769 2.477-10.052 4.233-18.75 4.233S3.769 12.827 0 10.35v4.233c0 1.602 4.617 6.25 18.75 6.25M0 20.767V25c0 1.602 4.617 6.25 18.75 6.25.058 0 .108-.002.167-.004a14.472 14.472 0 0 1 2.502-6.304c-.865.037-1.752.058-2.669.058C10.052 25 3.769 23.244 0 20.767zm18.915 14.646c-.056 0-.109.004-.165.004-8.698 0-14.983-1.757-18.75-4.234v2.15c0 5.471 9.431 8.334 18.75 8.334.856 0 1.713-.034 2.565-.082a14.497 14.497 0 0 1-2.4-6.172"/><path fill="#FFF" d="M18.75 10.417c10.823 0 16.052-2.723 17.915-4.72C34.175 1.95 26.43 0 18.75 0 11.069 0 3.325 1.95.835 5.698c1.863 1.996 7.092 4.719 17.915 4.719"/><path fill="#22C064" d="M27.083 33.333a6.258 6.258 0 0 1 6.25-6.25 6.258 6.258 0 0 1 6.25 6.25 6.258 6.258 0 0 1-6.25 6.25 6.258 6.258 0 0 1-6.25-6.25zm21.696 12.5l-6.764-6.764a10.34 10.34 0 0 0 1.735-5.736c0-5.743-4.673-10.416-10.417-10.416-5.743 0-10.416 4.673-10.416 10.416 0 5.744 4.673 10.417 10.416 10.417 2.121 0 4.09-.644 5.736-1.735l6.764 6.764 2.946-2.946z"/></g></svg>