<svg xmlns="http://www.w3.org/2000/svg" width="50" height="50" viewBox="0 0 50 50"><g fill="none" fill-rule="evenodd"><path fill="#22C064" d="M35.714 5.29v6.785l-4.18-4.183c-.832.617-1.617 1.26-2.305 1.948-6.558 6.557-5.693 11.793-3.279 14.212l-6.902 6.9v4.762L29.07 25.692c2.767.567 6.62-.45 11.09-4.921C46.722 14.21 50-.001 50-.001s-7.626 1.77-14.286 5.29"/><path fill="#FFF" d="M30.906 30.59L18.351 43.145a2.376 2.376 0 0 1-2.595.516 2.376 2.376 0 0 1-1.47-2.2V29.966c0-.631.25-1.238.699-1.683l5.019-5.02c-.955-2.78-.739-5.861.507-8.978H4.763a4.767 4.767 0 0 0-4.762 4.762v26.19A4.767 4.767 0 0 0 4.763 50h26.19a4.768 4.768 0 0 0 4.762-4.762V29.523c-1.842.729-3.48 1.024-4.809 1.067"/></g></svg>