<svg xmlns="http://www.w3.org/2000/svg" width="50" height="50" viewBox="0 0 50 50"><g fill="none" fill-rule="evenodd"><path fill="#FFF" d="M8.333 45.833c0-1.462.265-2.86.73-4.166H6.946C3.11 41.667 0 44.08 0 47.917V50h8.333v-4.167zm7.483-11.44l.002-.018a5.21 5.21 0 0 0-10.416 0c0 2.69 2.043 4.875 4.656 5.154a12.569 12.569 0 0 1 5.758-5.136m23.959-5.226a5.207 5.207 0 0 0-5.207 5.208c0 .073.02.142.021.215a12.552 12.552 0 0 1 5.375 4.975c2.788-.102 5.021-2.377 5.021-5.19a5.21 5.21 0 0 0-5.21-5.208m3.279 12.5h-2.117c.465 1.306.73 2.704.73 4.166V50H50v-2.083c0-3.836-3.11-6.25-6.946-6.25M12.5 50h25v-4.167c0-3.991-2.81-7.318-6.556-8.133A10.345 10.345 0 0 1 25 39.583a10.35 10.35 0 0 1-5.944-1.883c-3.746.815-6.556 4.142-6.556 8.133V50zm18.75-20.833a6.25 6.25 0 1 1-12.5 0 6.25 6.25 0 1 1 12.5 0"/><path fill="#22C064" d="M33.333 8.333H16.667V4.167h16.666v4.166zm0 8.334H16.667V12.5h16.666v4.167zM35.417 0H14.583a4.167 4.167 0 0 0-4.166 4.167v22.916l6.25-6.25h18.75a4.167 4.167 0 0 0 4.166-4.166v-12.5c0-2.3-1.864-4.167-4.166-4.167z"/></g></svg>