<svg xmlns="http://www.w3.org/2000/svg" width="65" height="50" viewBox="0 0 65 50"><g fill="none" fill-rule="evenodd"><path fill="#22C064" d="M35.294 35.294C35.294 43.418 41.88 50 50 50s14.706-6.582 14.706-14.706H35.294z"/><path fill="#FFF" d="M14.706 50c8.12 0 14.706-6.582 14.706-14.706H0C0 43.418 6.585 50 14.706 50m20.588-35.294v-2.941h10.753l-6.176 20.588h6.14L50 19.059l3.988 13.294h6.141l-6.176-20.588h7.812V5.882h-26.47V0h-5.883v5.882H2.942v5.883h7.81L4.577 32.353h6.142l3.988-13.294 3.988 13.294h6.141L18.66 11.765h10.753v2.94z"/></g></svg>