<svg xmlns="http://www.w3.org/2000/svg" width="50" height="66" viewBox="0 0 50 66">
    <g fill="none" fill-rule="evenodd">
        <path fill="#22C064" d="M40 45.641h-2.5v-10H40c2.758 0 5 2.24 5 5 0 2.758-2.242 5-5 5m0-15h-2.5v-2.5a2.5 2.5 0 0 0-2.5-2.5H5a2.5 2.5 0 0 0-2.5 2.5v20c0 3.72 1.175 7.165 3.162 10h28.643c1.532-2.192 2.598-4.735 2.995-7.5H40c5.515 0 10-4.485 10-10s-4.485-10-10-10"/>
        <path fill="#343434" d="M0 65.641h40v-5H0z"/>
        <path stroke="#979797" stroke-linecap="square" d="M12.674 21.795s-1.287-2.92-1.12-4.804c.284-3.22 2.022-2.677 2.022-5.404 0-2.731-1.734-2.622-2.023-5.512-.162-1.621 1.121-3.51 1.121-3.51M20.367 19.23s-1.288-2.918-1.121-4.804c.284-3.218 2.022-2.676 2.022-5.403 0-2.731-1.734-2.622-2.022-5.512C19.084 1.89 20.366 0 20.366 0M28.06 23.077s-1.289-2.92-1.122-4.804c.284-3.22 2.023-2.677 2.023-5.404 0-2.731-1.734-2.622-2.023-5.512-.162-1.621 1.121-3.51 1.121-3.51"/>
    </g>
</svg>
