<?xml version="1.0" encoding="utf-8"?>
<!-- Svg Vector Icons : http://www.onlinewebfonts.com/icon -->
<!DOCTYPE svg PUBLIC "-//W3C//DTD SVG 1.1//EN" "http://www.w3.org/Graphics/SVG/1.1/DTD/svg11.dtd">
<svg version="1.1" xmlns="http://www.w3.org/2000/svg" xmlns:xlink="http://www.w3.org/1999/xlink" x="0px" y="0px" viewBox="0 0 1000 1000" enable-background="new 0 0 1000 1000" xml:space="preserve">
<metadata> Svg Vector Icons : http://www.onlinewebfonts.com/icon </metadata>
<g><path d="M670.3,574.2c82.9-55.2,137.6-149.4,137.6-256.4c0-170-137.8-307.8-307.8-307.8c-170,0-307.8,137.8-307.8,307.8c0,107,54.7,201.2,137.6,256.4C171.5,637.4,59,786.3,53.2,961.3c0,0-7.6,33.2,55.2,28c26.9-2.2,33.7-28,33.7-28c29.8-190.7,178.5-335.8,358-335.8c179.5,0,328.2,145.1,358,335.8c0,0,17.4,26.1,33.7,28c51.3,5.9,55.2-28,55.2-28C941.3,786.3,828.8,637.4,670.3,574.2z M500.1,541.6c-123.6,0-223.8-100.2-223.8-223.8c0-123.6,100.2-223.8,223.8-223.8C623.8,93.9,724,194.2,724,317.8C724,441.4,623.8,541.6,500.1,541.6z"/></g>
</svg>