<svg xmlns="http://www.w3.org/2000/svg" width="114" height="52" viewBox="0 0 114 52">
    <g fill="none" fill-rule="evenodd">
        <path fill="#22C064" d="M2.082 36.4L.002 46.8h29.12l2.08-10.4zM10.694 20.8l-2.08 10.4h23.92l2.08-10.4zM24.426 5.2l-2.08 10.4h13.52l2.08-10.4z"/>
        <path fill="#343434" d="M107.79 0H54.648l19.162 24.107z"/>
        <path fill="#343434" d="M75.809 35.439a5.194 5.194 0 0 1-7.077-1.004L46.366 6.293l-9.812 39.244a5.2 5.2 0 0 0 5.044 6.464h57.2a5.206 5.206 0 0 0 5.05-3.936l9.874-39.526-37.913 26.9z"/>
    </g>
</svg>
