<svg xmlns="http://www.w3.org/2000/svg" width="100" height="100" viewBox="0 0 100 100">
    <defs>
        <linearGradient id="a" x1="0%" x2="89.043%" y1="-17.009%" y2="100%">
            <stop offset="0%" stop-color="#47E19D"/>
            <stop offset="100%" stop-color="#22C064"/>
        </linearGradient>
    </defs>
    <g fill="none" fill-rule="evenodd">
        <path fill="url(#a)" d="M50 100a49.832 49.832 0 0 0 19.96-4.143c5.11-2.227 22.04 0 22.04 0s-.835-16.95 1.8-21.721C97.75 66.98 100 58.753 100 50c0-27.614-22.386-50-50-50S0 22.386 0 50s22.386 50 50 50z"/>
        <g fill="#FFF">
            <path d="M49.51 48.023l21.973-13.638a4.837 4.837 0 0 0-2.365-.635H29.902c-.863 0-1.662.243-2.365.635L49.51 48.023z"/>
            <path d="M50.802 52.99a2.453 2.453 0 0 1-2.586 0L25.008 38.584c0 .024-.007.046-.007.066V60.71a4.907 4.907 0 0 0 4.902 4.902h39.215a4.907 4.907 0 0 0 4.902-4.902V38.65c0-.02-.007-.042-.007-.066l-23.21 14.404z"/>
        </g>
    </g>
</svg>
