<svg xmlns="http://www.w3.org/2000/svg" width="157" height="28" viewBox="0 0 157 28">
    <g fill="none" fill-rule="nonzero">
        <g fill="#FFF">
            <path d="M37.874 26.232v-6.528h8.87v-3.067h-8.87v-4.811h9.376V8.623H34.52v17.61h3.354zm17.33-12.675c-3.97 0-6.462 2.93-6.462 6.474 0 3.585 2.437 6.474 6.488 6.474 4.038 0 6.502-2.89 6.502-6.474 0-3.544-2.56-6.474-6.529-6.474zm.026 2.794c2.067 0 3.381 1.813 3.381 3.68 0 1.894-1.136 3.653-3.38 3.653-2.26 0-3.395-1.759-3.395-3.653 0-1.867 1.163-3.68 3.394-3.68zm8.706-2.535v6.515c0 3.857 2.176 6.106 5.16 6.106 1.739 0 2.93-.613 4.23-1.867l.191 1.662h2.765V13.816h-3.066v6.337c0 1.895-1.286 3.49-3.189 3.49-1.971 0-3.011-1.445-3.011-3.326v-6.501h-3.08zm15.07 0v12.416H82.1v-6.556c0-2.29 1.492-3.148 3.107-3.148 1.013 0 1.601.286 2.231.804l1.396-2.671c-.684-.668-1.93-1.173-3.216-1.173-1.26 0-2.56.219-3.518 1.759l-.233-1.431h-2.86zM103.809 11.498c-1.342-2.726-4.202-3.502-6.954-3.502-3.271.013-6.857 1.512-6.857 5.138 0 3.953 3.34 4.907 6.953 5.343 2.354.245 4.107.927 4.107 2.59 0 1.922-1.985 2.644-4.08 2.644-2.148 0-4.202-.859-4.982-2.794l-2.792 1.43c1.328 3.231 4.106 4.335 7.72 4.335 3.956 0 7.446-1.69 7.446-5.615 0-4.212-3.45-5.166-7.145-5.616-2.122-.259-3.942-.681-3.942-2.222 0-1.308 1.19-2.344 3.668-2.344 1.93 0 3.6.954 4.202 1.963l2.656-1.35zm11.539 11.136c-.753.75-1.739 1.022-2.724 1.022-1.93 0-3.545-1.254-3.545-3.625 0-2.167 1.519-3.68 3.586-3.68.862 0 1.78.327 2.505.981l1.957-2.03c-1.369-1.337-2.737-1.84-4.503-1.84-3.627 0-6.639 2.166-6.639 6.569 0 4.416 3.012 6.583 6.639 6.583 1.834 0 3.353-.559 4.804-1.963l-2.08-2.017zm9.568-9.077c-3.97 0-6.447 2.93-6.447 6.474 0 3.585 2.422 6.474 6.474 6.474s6.502-2.89 6.502-6.474c0-3.544-2.56-6.474-6.53-6.474zm.027 2.794c2.067 0 3.395 1.813 3.395 3.68 0 1.894-1.15 3.653-3.395 3.653-2.259 0-3.395-1.759-3.395-3.653 0-1.867 1.164-3.68 3.395-3.68zm8.623-2.535v12.416h3.094v-6.556c0-2.29 1.492-3.148 3.107-3.148 1.013 0 1.601.286 2.231.804l1.396-2.671c-.684-.668-1.93-1.173-3.216-1.173-1.273 0-2.56.219-3.518 1.759l-.233-1.431h-2.86zm23.366 7.305c.479-5.125-2.136-7.687-6.31-7.687-4.052 0-6.626 2.726-6.626 6.501 0 3.98 2.56 6.625 6.858 6.625 1.903 0 4.052-.655 5.366-2.018l-1.971-1.935c-.712.722-2.204 1.158-3.34 1.158-2.176 0-3.518-1.104-3.723-2.644h9.746zm-9.691-2.549c.451-1.608 1.82-2.412 3.49-2.412 1.766 0 3.025.804 3.23 2.412h-6.72z"/>
        </g>
        <path fill="#9B9B9B" d="M14.014 0c3.872 0 7.38 1.566 9.913 4.097a14.006 14.006 0 0 1 3.736 6.685h-9.512v.008c-1.302.071-1.932.665-1.932 1.408 0 .923 1.095 1.18 2.369 1.337 2.219.272 4.287.851 4.287 3.382 0 2.374-2.097 3.39-4.466 3.39-2.176 0-3.85-.666-4.638-2.61l1.668-.866c.472 1.166 1.703 1.68 2.999 1.68 1.26 0 2.447-.435 2.447-1.594 0-1-1.052-1.408-2.462-1.558-2.176-.265-4.18-.837-4.18-3.225 0-2.11 2.004-3.018 3.908-3.096h6.836a12.027 12.027 0 0 0-10.972-7.064 12.01 12.01 0 0 0-8.51 3.517A11.979 11.979 0 0 0 1.974 14c0 1.988.48 3.861 1.339 5.513v3.525A13.918 13.918 0 0 1 0 14c0-3.868 1.567-7.365 4.108-9.903A13.98 13.98 0 0 1 14.014 0z"/>
        <path fill="#FFF" d="M7.873 19.684v4.662a12.015 12.015 0 0 0 6.141 1.68 12.17 12.17 0 0 0 3.908-.643h5.612v-4.018A11.968 11.968 0 0 0 26.06 14l-.007-.122h1.975l.008.122c0 2.982-.938 5.742-2.527 8.015v5.341h-7.272a14.173 14.173 0 0 1-4.223.644c-3.042 0-5.855-.965-8.152-2.61V9.066h7.651v1.93h-5.64V13.9h5.34v1.852h-5.34V19.684z"/>
    </g>
</svg>
