<svg xmlns="http://www.w3.org/2000/svg" width="40" height="40" viewBox="0 0 40 40">
    <g fill="none" fill-rule="nonzero">
        <path fill="#166469" d="M19.975 0a19.91 19.91 0 0 1 14.13 5.853 20.021 20.021 0 0 1 5.325 9.55H25.872v.01c-1.857.103-2.755.95-2.755 2.013 0 1.318 1.561 1.685 3.377 1.91 3.162.388 6.11 1.216 6.11 4.832 0 3.39-2.988 4.841-6.365 4.841-3.101 0-5.489-.95-6.61-3.728l2.376-1.236c.673 1.665 2.428 2.4 4.275 2.4 1.795 0 3.489-.623 3.489-2.277 0-1.43-1.5-2.013-3.51-2.227-3.101-.378-5.958-1.195-5.958-4.607 0-3.013 2.857-4.31 5.57-4.423H35.615a17.297 17.297 0 0 0-3.499-5.066 17.123 17.123 0 0 0-12.14-5.026c-4.734 0-9.029 1.92-12.13 5.026A17.132 17.132 0 0 0 2.815 20c0 2.84.684 5.516 1.908 7.875v5.036A19.91 19.91 0 0 1 0 20C0 14.474 2.234 9.48 5.856 5.853A19.904 19.904 0 0 1 19.975 0z"/>
        <path fill="#36B566" d="M11.222 28.12v6.66c2.56 1.522 5.56 2.4 8.753 2.4a17.31 17.31 0 0 0 5.57-.919h7.998v-5.74A17.121 17.121 0 0 0 37.144 20l-.01-.174h2.816l.01.174c0 4.26-1.336 8.202-3.601 11.45v7.63H25.994c-1.898.593-3.917.92-6.019.92a19.856 19.856 0 0 1-11.62-3.728v-23.32h10.906v2.758h-8.04v4.147h7.611v2.646h-7.61v5.618z"/>
    </g>
</svg>
