<svg width="44" height="39" viewBox="0 0 44 39" fill="none" xmlns="http://www.w3.org/2000/svg">
<path fill-rule="evenodd" clip-rule="evenodd" d="M4.49946 20.3803H1.87439C1.50868 20.3803 1.18317 20.153 1.05536 19.8094C0.927637 19.4641 1.02567 19.0765 1.3004 18.835L21.426 1.21538C21.755 0.928207 22.245 0.928207 22.574 1.21538L29.0457 6.88187C29.1647 6.53474 29.4902 6.28456 29.8752 6.28456H35.1253C35.6083 6.28456 36.0004 6.67927 36.0004 7.16558V12.9695L42.6996 18.8333C42.9744 19.0765 43.0723 19.4641 42.9446 19.8076C42.8169 20.153 42.4896 20.3803 42.1256 20.3803H39.5005V37.119C39.5005 37.6053 39.1085 38 38.6255 38H26.3751C25.8921 38 25.5001 37.6053 25.5001 37.119V27.4282H18.4999V37.119C18.4999 37.6053 18.1079 38 17.6248 38H5.37452C4.8915 38 4.49946 37.6053 4.49946 37.119V20.3803ZM29.3013 9.44017L22 3.04777L4.21423 18.6183H5.37444C5.85745 18.6183 6.24949 19.013 6.24949 19.4993V36.238H16.7498V26.5472C16.7498 26.0609 17.1418 25.6662 17.6248 25.6662H26.3751C26.8581 25.6662 27.2502 26.0609 27.2502 26.5472V36.238H37.7505V19.4992C37.7505 19.0129 38.1425 18.6182 38.6255 18.6182H39.7858L34.5514 14.0354C34.359 13.8679 34.2504 13.6248 34.2504 13.3711V8.04642H30.7503V8.77414C30.7503 9.11946 30.5508 9.43315 30.2393 9.5776C29.926 9.72032 29.5603 9.66746 29.3013 9.44017Z" fill="white"/>
<path d="M4.49946 20.3803H4.99946V19.8803H4.49946V20.3803ZM1.05536 19.8094L0.586413 19.9828L0.586736 19.9837L1.05536 19.8094ZM1.3004 18.835L0.971041 18.4588L0.97035 18.4594L1.3004 18.835ZM21.426 1.21538L21.0972 0.838675L21.0966 0.839182L21.426 1.21538ZM22.574 1.21538L22.9034 0.839201L22.9028 0.838676L22.574 1.21538ZM29.0457 6.88187L28.7163 7.25805L29.2769 7.74894L29.5186 7.04405L29.0457 6.88187ZM36.0004 12.9695H35.5004V13.1963L35.6711 13.3457L36.0004 12.9695ZM42.6996 18.8333L43.0309 18.4588L43.0289 18.4571L42.6996 18.8333ZM42.9446 19.8076L42.476 19.6334L42.4757 19.6342L42.9446 19.8076ZM39.5005 20.3803V19.8803H39.0005V20.3803H39.5005ZM25.5001 27.4282H26.0001V26.9282H25.5001V27.4282ZM18.4999 27.4282V26.9282H17.9999V27.4282H18.4999ZM22 3.04777L22.3294 2.67158L22 2.38323L21.6707 2.67157L22 3.04777ZM29.3013 9.44017L29.6311 9.06437L29.6306 9.06398L29.3013 9.44017ZM4.21423 18.6183L3.88489 18.2421L2.88402 19.1183H4.21423V18.6183ZM6.24949 36.238H5.74949V36.738H6.24949V36.238ZM16.7498 36.238V36.738H17.2498V36.238H16.7498ZM27.2502 36.238H26.7502V36.738H27.2502V36.238ZM37.7505 36.238V36.738H38.2505V36.238H37.7505ZM39.7858 18.6182V19.1182H41.116L40.1152 18.242L39.7858 18.6182ZM34.5514 14.0354L34.8808 13.6592L34.8796 13.6581L34.5514 14.0354ZM34.2504 8.04642H34.7504V7.54642H34.2504V8.04642ZM30.7503 8.04642V7.54642H30.2503V8.04642H30.7503ZM30.2393 9.5776L30.4466 10.0326L30.4497 10.0312L30.2393 9.5776ZM1.87439 20.8803H4.49946V19.8803H1.87439V20.8803ZM0.586736 19.9837C0.786917 20.5218 1.29845 20.8803 1.87439 20.8803V19.8803C1.71891 19.8803 1.57943 19.7841 1.52399 19.6351L0.586736 19.9837ZM0.97035 18.4594C0.539517 18.838 0.387174 19.4442 0.586414 19.9828L1.52431 19.6359C1.4681 19.4839 1.51182 19.3149 1.63044 19.2106L0.97035 18.4594ZM21.0966 0.839182L0.971042 18.4588L1.62975 19.2112L21.7553 1.59158L21.0966 0.839182ZM22.9028 0.838676C22.3854 0.387108 21.6146 0.387108 21.0972 0.838676L21.7547 1.59208C21.8954 1.46931 22.1046 1.46931 22.2452 1.59208L22.9028 0.838676ZM29.375 6.50569L22.9034 0.839201L22.2446 1.59156L28.7163 7.25805L29.375 6.50569ZM29.8752 5.78456C29.2662 5.78456 28.7576 6.18046 28.5727 6.71969L29.5186 7.04405C29.5718 6.88902 29.7142 6.78456 29.8752 6.78456V5.78456ZM35.1253 5.78456H29.8752V6.78456H35.1253V5.78456ZM36.5004 7.16558C36.5004 6.40633 35.8877 5.78456 35.1253 5.78456V6.78456C35.329 6.78456 35.5004 6.95221 35.5004 7.16558H36.5004ZM36.5004 12.9695V7.16558H35.5004V12.9695H36.5004ZM43.0289 18.4571L36.3297 12.5933L35.6711 13.3457L42.3703 19.2095L43.0289 18.4571ZM43.4133 19.9819C43.6134 19.4435 43.4596 18.8382 43.0309 18.4588L42.3683 19.2078C42.4892 19.3148 42.5313 19.4846 42.476 19.6334L43.4133 19.9819ZM42.1256 20.8803C42.6996 20.8803 43.2135 20.5219 43.4136 19.9811L42.4757 19.6342C42.4203 19.784 42.2795 19.8803 42.1256 19.8803V20.8803ZM39.5005 20.8803H42.1256V19.8803H39.5005V20.8803ZM40.0005 37.119V20.3803H39.0005V37.119H40.0005ZM38.6255 38.5C39.3878 38.5 40.0005 37.8782 40.0005 37.119H39.0005C39.0005 37.3324 38.8291 37.5 38.6255 37.5V38.5ZM26.3751 38.5H38.6255V37.5H26.3751V38.5ZM25.0001 37.119C25.0001 37.8782 25.6128 38.5 26.3751 38.5V37.5C26.1715 37.5 26.0001 37.3324 26.0001 37.119H25.0001ZM25.0001 27.4282V37.119H26.0001V27.4282H25.0001ZM18.4999 27.9282H25.5001V26.9282H18.4999V27.9282ZM18.9999 37.119V27.4282H17.9999V37.119H18.9999ZM17.6248 38.5C18.3872 38.5 18.9999 37.8782 18.9999 37.119H17.9999C17.9999 37.3324 17.8285 37.5 17.6248 37.5V38.5ZM5.37452 38.5H17.6248V37.5H5.37452V38.5ZM3.99946 37.119C3.99946 37.8782 4.61217 38.5 5.37452 38.5V37.5C5.17084 37.5 4.99946 37.3324 4.99946 37.119H3.99946ZM3.99946 20.3803V37.119H4.99946V20.3803H3.99946ZM21.6707 3.42396L28.9719 9.81636L29.6306 9.06398L22.3294 2.67158L21.6707 3.42396ZM4.54358 18.9945L22.3294 3.42398L21.6707 2.67157L3.88489 18.2421L4.54358 18.9945ZM5.37444 18.1183H4.21423V19.1183H5.37444V18.1183ZM6.74949 19.4993C6.74949 18.7401 6.13679 18.1183 5.37444 18.1183V19.1183C5.57811 19.1183 5.74949 19.286 5.74949 19.4993H6.74949ZM6.74949 36.238V19.4993H5.74949V36.238H6.74949ZM16.7498 35.738H6.24949V36.738H16.7498V35.738ZM16.2498 26.5472V36.238H17.2498V26.5472H16.2498ZM17.6248 25.1662C16.8625 25.1662 16.2498 25.7879 16.2498 26.5472H17.2498C17.2498 26.3338 17.4212 26.1662 17.6248 26.1662V25.1662ZM26.3751 25.1662H17.6248V26.1662H26.3751V25.1662ZM27.7502 26.5472C27.7502 25.7879 27.1375 25.1662 26.3751 25.1662V26.1662C26.5788 26.1662 26.7502 26.3338 26.7502 26.5472H27.7502ZM27.7502 36.238V26.5472H26.7502V36.238H27.7502ZM37.7505 35.738H27.2502V36.738H37.7505V35.738ZM37.2505 19.4992V36.238H38.2505V19.4992H37.2505ZM38.6255 18.1182C37.8632 18.1182 37.2505 18.74 37.2505 19.4992H38.2505C38.2505 19.2859 38.4219 19.1182 38.6255 19.1182V18.1182ZM39.7858 18.1182H38.6255V19.1182H39.7858V18.1182ZM34.2221 14.4115L39.4565 18.9944L40.1152 18.242L34.8808 13.6592L34.2221 14.4115ZM33.7504 13.3711C33.7504 13.7669 33.9197 14.1485 34.2233 14.4126L34.8796 13.6581C34.7982 13.5873 34.7504 13.4827 34.7504 13.3711H33.7504ZM33.7504 8.04642V13.3711H34.7504V8.04642H33.7504ZM30.7503 8.54642H34.2504V7.54642H30.7503V8.54642ZM31.2503 8.77414V8.04642H30.2503V8.77414H31.2503ZM30.4497 10.0312C30.9391 9.80423 31.2503 9.31272 31.2503 8.77414H30.2503C30.2503 8.9262 30.1625 9.06207 30.029 9.12401L30.4497 10.0312ZM28.9715 9.81596C29.3792 10.1738 29.9554 10.2564 30.4466 10.0326L30.032 9.12259C29.8967 9.18425 29.7413 9.16111 29.6311 9.06437L28.9715 9.81596Z" fill="white"/>
</svg>
