<?xml version="1.0" encoding="UTF-8"?>
<svg width="18px" height="14px" viewBox="0 0 18 14" version="1.1" xmlns="http://www.w3.org/2000/svg" xmlns:xlink="http://www.w3.org/1999/xlink">
    <!-- Generator: Sketch 46.2 (44496) - http://www.bohemiancoding.com/sketch -->
    <title>Twitter </title>
    <desc>Created with Sketch.</desc>
    <defs></defs>
    <g id="Master-Mobile-v0.0.1---voter" stroke="none" stroke-width="1" fill="none" fill-rule="evenodd">
        <g id="122" transform="translate(-20.000000, -719.000000)" fill="#29B8F2">
            <g id="Social" transform="translate(0.000000, 549.000000)">
                <g id="Twitter" transform="translate(20.000000, 157.000000)">
                    <path d="M15.2838952,15.1525538 C16.0176537,14.7269739 16.5817672,14.0536771 16.8470942,13.2512389 C16.1602963,13.6451204 15.3995355,13.9315797 14.5900532,14.0853755 C13.9419977,13.4173618 13.0180491,13 11.9954833,13 C10.0325327,13 8.44115732,14.5385447 8.44115732,16.4363376 C8.44115732,16.7051867 8.47226867,16.9681657 8.53331738,17.2194046 C5.57891232,17.076175 2.95968812,15.7078622 1.20629891,13.6292713 C0.900468381,14.1370321 0.724953358,14.7269739 0.724953358,15.3568322 C0.724953358,16.5490429 1.35246359,17.600959 2.30634959,18.2173161 C1.72345187,18.1991189 1.17518755,18.0447362 0.696777033,17.7876272 C0.696190026,17.8017154 0.696190026,17.8163905 0.696190026,17.8310657 C0.696190026,19.4958169 1.92127315,20.8846749 3.5472819,21.2004845 C3.24908246,21.2791434 2.93503384,21.3214079 2.6110061,21.3214079 C2.38148646,21.3214079 2.15901089,21.2996887 1.94240539,21.2597722 C2.3944006,22.62515 3.70753474,23.6189524 5.26251567,23.6459547 C4.04623765,24.5675554 2.51356298,25.1169937 0.847637772,25.1169937 C0.560591463,25.1169937 0.277654201,25.1005575 0,25.0688591 C1.57317814,26.0438774 3.44162068,26.6126869 5.44918382,26.6126869 C11.9872652,26.6126869 15.5627234,21.3765866 15.5627234,16.8355022 C15.5627234,16.6864025 15.5592014,16.5384768 15.5527443,16.3905511 C16.2465863,15.9056835 16.8494423,15.3004795 17.3255047,14.6113336 C16.6880154,14.8842917 16.0029785,15.0691989 15.2838952,15.1525538 Z" id="Twitter-"></path>
                </g>
            </g>
        </g>
    </g>
</svg>