<?xml version="1.0" standalone="no"?>
<!DOCTYPE svg PUBLIC "-//W3C//DTD SVG 20010904//EN"
 "http://www.w3.org/TR/2001/REC-SVG-20010904/DTD/svg10.dtd">
<svg version="1.0" xmlns="http://www.w3.org/2000/svg"
 width="700.000000pt" height="700.000000pt" viewBox="0 0 700.000000 700.000000"
 preserveAspectRatio="xMidYMid meet">
<metadata>
Created by potrace 1.14, written by Peter Selinger 2001-2017
</metadata>
<g transform="translate(0.000000,700.000000) scale(0.100000,-0.100000)"
fill="#000000" stroke="none">
<path d="M3278 6996 c-1 -2 -39 -6 -83 -10 -44 -3 -98 -9 -120 -12 -22 -3 -53
-7 -70 -9 -16 -2 -48 -6 -70 -10 -22 -3 -53 -8 -70 -11 -16 -3 -37 -7 -45 -9
-8 -2 -26 -6 -40 -9 -125 -22 -553 -151 -585 -176 -5 -4 -21 -11 -35 -15 -38
-11 -304 -141 -395 -193 -127 -73 -414 -267 -445 -302 -3 -3 -30 -25 -60 -50
-261 -212 -524 -514 -725 -831 -74 -116 -215 -381 -245 -459 -7 -19 -19 -48
-26 -65 -84 -188 -190 -564 -218 -770 -3 -17 -7 -46 -11 -66 -21 -124 -30
-283 -30 -509 0 -199 5 -302 19 -405 3 -16 7 -55 11 -85 9 -79 40 -231 76
-373 110 -437 318 -868 594 -1231 109 -144 111 -146 117 -146 2 0 4 197 3 438
l-1 437 -38 80 c-71 149 -171 415 -191 510 -2 11 -15 70 -29 130 -30 132 -54
284 -63 409 -13 174 -6 549 12 616 2 8 7 39 10 69 17 156 84 417 157 611 52
140 169 390 213 454 14 20 25 39 25 42 0 4 33 56 74 118 218 326 516 624 841
841 384 256 850 428 1302 480 276 33 563 27 833 -16 36 -6 79 -13 95 -16 17
-2 48 -9 70 -15 22 -5 51 -12 65 -15 52 -9 204 -55 307 -92 181 -65 319 -129
508 -236 121 -68 393 -265 474 -344 10 -9 39 -37 67 -62 202 -188 443 -499
567 -731 20 -37 40 -75 46 -85 32 -60 62 -126 59 -129 -2 -2 -415 -5 -918 -7
-503 -2 -926 -6 -940 -9 -14 -3 -43 -9 -65 -13 -150 -24 -351 -104 -460 -183
-134 -98 -231 -233 -271 -383 -21 -77 -24 -277 -6 -358 59 -259 223 -424 527
-528 73 -25 199 -56 275 -68 25 -4 54 -9 64 -11 21 -4 144 -21 211 -29 384
-48 579 -190 562 -408 -17 -200 -171 -325 -448 -364 -67 -9 -268 -9 -329 1
-254 41 -454 167 -550 347 l-31 59 -208 -107 -208 -107 42 -86 c188 -381 550
-565 1110 -564 391 1 681 93 891 284 80 72 163 206 193 308 73 252 32 540
-102 717 -105 139 -294 249 -534 309 -141 35 -313 65 -468 82 -76 8 -233 44
-295 67 -69 25 -154 81 -178 115 -53 76 -60 172 -19 263 52 118 178 193 377
225 25 4 585 8 1245 8 l1200 1 -3 25 c-4 32 -26 111 -62 225 -166 527 -454
1004 -844 1399 -129 132 -243 235 -321 292 -22 16 -46 35 -53 42 -26 24 -203
144 -309 209 -343 210 -843 398 -1193 449 -19 3 -60 9 -90 15 -30 5 -82 12
-115 15 -33 3 -71 8 -85 11 -27 5 -536 14 -542 9z"/>
<path d="M1484 4732 l-22 -3 0 -2036 c0 -1517 3 -2039 12 -2047 24 -23 105
-76 114 -76 6 0 12 -4 14 -8 10 -24 509 -292 545 -292 5 0 27 -9 49 -19 64
-31 353 -126 444 -146 147 -32 317 -65 365 -70 33 -4 69 -9 79 -11 133 -25
683 -24 837 1 13 2 71 11 129 20 134 20 252 46 393 85 l112 31 902 0 c497 1
903 4 904 7 0 4 1 306 2 672 l2 665 36 50 c86 119 226 375 306 560 93 215 190
533 227 745 2 14 9 52 15 85 5 33 13 83 16 110 9 87 17 169 20 210 3 38 7 211
6 248 -1 16 -20 17 -246 17 l-245 0 -1 -67 c-2 -222 -31 -446 -86 -678 -27
-115 -100 -339 -133 -412 -11 -24 -20 -45 -20 -48 0 -4 -27 -63 -61 -132 -70
-147 -174 -322 -265 -446 l-64 -87 0 -503 0 -502 -702 0 -703 -1 -100 -31
c-99 -31 -244 -67 -319 -79 -21 -3 -48 -8 -60 -10 -11 -2 -41 -6 -66 -9 -25
-3 -54 -8 -65 -10 -115 -23 -583 -24 -711 -1 -10 2 -41 7 -69 10 -230 32 -534
114 -709 190 -17 8 -49 21 -71 31 -50 22 -237 115 -290 145 l-41 23 0 1074 0
1073 31 0 c16 0 316 2 665 3 l635 2 0 223 c0 123 -2 227 -5 231 -3 4 -302 7
-665 7 l-660 -1 -1 363 0 362 703 0 703 0 0 240 c0 222 -1 240 -17 241 -48 3
-1851 4 -1869 1z"/>
</g>
</svg>
