<svg xmlns="http://www.w3.org/2000/svg" width="80" height="80" viewBox="0 0 80 80">
    <g fill="#9B9B9B" fill-rule="nonzero">
        <path d="M40 35.443c5.305 0 9.62-4.317 9.62-9.62 0-5.304-4.315-9.62-9.62-9.62-5.305 0-9.62 4.316-9.62 9.62 0 5.303 4.315 9.62 9.62 9.62zm0-16.492a6.88 6.88 0 0 1 6.872 6.872A6.88 6.88 0 0 1 40 32.694a6.88 6.88 0 0 1-6.872-6.871A6.88 6.88 0 0 1 40 18.95z"/>
        <path d="M39.496 72.911l20.255-29.503c7.596-10.214 6.498-27.003-2.352-35.927C52.617 2.656 46.26 0 39.496 0c-6.762 0-13.12 2.656-17.903 7.48-8.85 8.923-9.948 25.713-2.382 35.887l20.285 29.544zM23.46 9.362c4.284-4.32 9.979-6.699 16.036-6.699 6.058 0 11.752 2.38 16.036 6.7 7.988 8.054 8.972 23.217 2.077 32.487L39.496 68.232 21.354 41.811c-6.865-9.23-5.88-24.394 2.106-32.449z"/>
        <path d="M56.156 57.732a1.324 1.324 0 0 0-1.48 1.148c-.085.72.437 1.37 1.168 1.454 14.021 1.623 21.49 5.994 21.49 8.527 0 3.557-14.203 8.518-37.334 8.518-23.13 0-37.333-4.961-37.333-8.518 0-2.533 7.468-6.904 21.489-8.527a1.316 1.316 0 0 0 1.168-1.454 1.323 1.323 0 0 0-1.48-1.148C9.805 59.357 0 63.932 0 68.862 0 74.396 13.74 80 40 80c26.26 0 40-5.603 40-11.139 0-4.928-9.805-9.504-23.844-11.13z"/>
    </g>
</svg>
