<svg width="406" height="452" viewBox="0 0 406 452" fill="none" xmlns="http://www.w3.org/2000/svg">
<g clip-path="url(#clip0_0_287)">
<path d="M323.166 239.619C323.166 271.677 310.59 301.814 287.76 324.481C245.506 366.438 177.734 371.288 129.994 335.821L112.296 318.252H148.097V309.975H102.246L98.0775 314.114V359.638H106.414V324.121L124.309 341.884L124.75 342.264C175.8 380.385 248.412 375.257 293.654 330.333C318.06 306.101 331.502 273.887 331.502 239.619H323.166Z" fill="url(#paint0_linear_0_287)"/>
<path d="M266.361 134.93L284.06 152.499H248.258V160.776H294.11L298.278 156.637V111.112H289.941V146.63L272.047 128.867L271.605 128.486C220.556 90.3654 147.944 95.4973 102.701 140.418C78.2957 164.65 64.8529 196.865 64.8529 231.133L73.1895 231.133C73.1895 199.075 85.7653 168.937 108.595 146.27C150.849 104.313 218.622 99.4663 266.361 134.93Z" fill="url(#paint1_linear_0_287)"/>
<g filter="url(#filter0_d_0_287)">
<path d="M67.3865 0C4.64456 0 11.6021 76.4884 11.8888 131.918C11.8998 134.012 12.9931 135.899 14.7819 136.98C21.7352 141.181 40.8276 151.005 67.3873 151.005C93.947 151.005 113.04 141.182 119.993 136.98C121.781 135.899 122.876 134.012 122.886 131.918C123.171 76.4884 130.128 0 67.3865 0Z" fill="#694B4B"/>
<path d="M63.344 0.157288C4.99137 3.43688 11.608 77.7213 11.8887 131.918C11.8997 134.012 12.993 135.899 14.7818 136.98C21.7352 141.181 40.8284 151.005 67.3872 151.005L83.2413 39.7377" fill="#5A4146"/>
<path d="M67.3864 0C31.7114 0 29.2339 43.2154 29.2339 43.2154C49.797 39.7386 62.4314 48.4311 83.2421 39.7386L67.3864 151.004C93.9461 151.004 113.039 141.181 119.992 136.979C121.781 135.899 122.875 134.011 122.885 131.917C123.171 76.4884 130.128 0 67.3864 0Z" fill="#694B4B"/>
<path d="M122.884 131.918C123.13 84.289 128.259 21.1554 89.9004 4.31781C89.232 7.80232 88.02 17.5297 91.1684 23.8432C99.0963 39.7386 107.024 39.7386 114.952 51.6597C122.88 95.3709 99.8045 141.767 92.1404 148.082V148.082C105.72 144.844 115.453 139.721 119.99 136.98C121.78 135.899 122.874 134.012 122.884 131.918Z" fill="#785550"/>
<path d="M127.454 143.974L92.0836 129.199C89.1286 127.965 87.2049 125.072 87.2049 121.863V112.259H47.5672V121.863C47.5672 125.072 45.6427 127.965 42.6885 129.199L7.31804 143.974C2.88633 145.825 0 150.166 0 154.977V170.873C0 175.262 3.54876 178.821 7.92787 178.821H126.844C131.223 178.821 134.772 175.263 134.772 170.873V154.977C134.772 150.166 131.886 145.825 127.454 143.974Z" fill="#E6AF78"/>
<path d="M127.454 143.974L93.2559 129.689L67.3866 140.881L41.5173 129.689L7.31901 143.974C2.88731 145.825 0.000976562 150.166 0.000976562 154.977V170.873C0.000976562 175.262 3.54973 178.821 7.92885 178.821H126.845C131.224 178.821 134.773 175.263 134.773 170.873V154.977C134.772 150.166 131.886 145.825 127.454 143.974Z" fill="#B4E1FA"/>
<path d="M87.2049 112.259H47.5673V121.863C47.5673 125.072 45.6428 127.965 42.6886 129.199L37.1636 131.506C79.4382 142.313 87.2049 112.259 87.2049 112.259Z" fill="#D29B6E"/>
<path d="M19.3205 159.346L3.40966 146.659C1.27735 148.844 0 151.8 0 154.977V170.873C0 175.262 3.54876 178.821 7.92787 178.821H23.7836V168.654C23.7836 165.034 22.1416 161.608 19.3205 159.346Z" fill="#A0D2F0"/>
<path d="M134.772 170.874V154.978C134.772 151.825 133.515 148.889 131.414 146.708L115.452 159.345C112.631 161.607 110.989 165.033 110.989 168.654V178.821H126.845C131.222 178.821 134.772 175.263 134.772 170.874Z" fill="#A0D2F0"/>
<path d="M67.6063 170.874H67.1652C65.0974 170.874 63.4214 169.194 63.4214 167.121V140.891H71.3493V167.121C71.3501 169.194 69.6741 170.874 67.6063 170.874Z" fill="#A0D2F0"/>
<path d="M67.3867 140.881L44.6989 123.824C43.2426 122.728 41.1679 123.085 40.1578 124.603L35.6743 131.344L49.5827 150.865C50.6403 152.35 52.7234 152.64 54.1441 151.5L67.3867 140.881Z" fill="#A0D2F0"/>
<path d="M67.3867 140.881L90.0745 123.824C91.5308 122.728 93.6054 123.085 94.6156 124.603L99.0991 131.344L85.1907 150.865C84.133 152.35 82.0499 152.64 80.6292 151.5L67.3867 140.881Z" fill="#A0D2F0"/>
<path d="M87.205 35.7643C67.3858 55.6331 28.4902 39.7377 28.4902 71.5277L30.9516 94.9449C31.4258 100.184 34.4554 104.847 39.0415 107.401L61.6105 119.971C65.2017 121.972 69.5689 121.972 73.161 119.971L95.73 107.401C100.316 104.846 103.346 100.183 103.82 94.9449L106.661 67.1334C106.863 65.1565 106.906 63.1676 106.84 61.1839C105.358 51.0696 91.1702 43.7111 87.205 35.7643Z" fill="#F0C087"/>
<path d="M28.4912 71.5277L30.9526 94.9449C31.4267 100.184 34.4564 104.847 39.0425 107.401L61.6115 119.971C64.1035 121.358 66.9618 121.719 69.6819 121.18V121.18C69.6819 121.18 58.3019 117.723 51.531 99.3452C49.4572 93.7145 46.576 63.9116 49.0535 60.2698C53.95 53.0695 81.2603 52.3221 89.3298 38.9657C88.9312 38.4699 88.5631 37.9734 88.2263 37.4759C88.1992 37.436 88.1661 37.3952 88.139 37.356C87.7887 36.828 87.4706 36.2983 87.2051 35.766C67.3867 55.6332 28.4912 39.7377 28.4912 71.5277Z" fill="#E6AF78"/>
<path d="M95.5737 170.874H86.7645C82.6297 170.874 79.2769 174.235 79.2769 178.38V178.822H103.06V178.38C103.061 174.233 99.7093 170.874 95.5737 170.874Z" fill="#A0D2F0"/>
</g>
<g filter="url(#filter1_d_0_287)">
<path d="M343.916 395.416V373.206H286.652V395.416L315.285 420.798L343.916 395.416Z" fill="#E6AF78"/>
<path d="M388.189 405.805L348.822 396.566C348.228 396.427 347.68 396.191 347.168 395.903L315.284 414.452L284.643 395.005C283.85 395.751 282.865 396.304 281.747 396.566L242.379 405.805C236.63 407.154 232.568 412.269 232.568 418.158V443.007C232.568 446.512 235.417 449.352 238.93 449.352H391.637C395.151 449.352 397.999 446.511 397.999 443.007V418.158C398.001 412.27 393.937 407.154 388.189 405.805Z" fill="#EFF2FA"/>
<path d="M286.652 373.206V396.639C322.721 409.599 343.916 377.163 343.916 377.163V373.206H286.652V373.206Z" fill="#D29B6E"/>
<path d="M273.926 300.232L276.698 361.06C276.958 366.742 279.751 372.012 284.314 375.424L297.468 385.264C300.773 387.735 304.792 389.071 308.921 389.071H321.646C325.776 389.071 329.795 387.736 333.1 385.264L346.255 375.424C350.818 372.011 353.612 366.742 353.87 361.06L356.642 300.232H273.926Z" fill="#F0C087"/>
<path d="M305.741 312.922C318.465 312.922 337.554 309.749 342.082 300.232H273.927L276.699 361.06C276.959 366.742 279.752 372.012 284.314 375.424L297.469 385.264C300.774 387.735 304.793 389.071 308.922 389.071H315.285C308.922 389.071 296.196 376.381 296.196 360.516C296.196 352.757 296.196 331.96 296.196 322.442C296.196 319.269 299.377 312.922 305.741 312.922Z" fill="#E6AF78"/>
<path d="M374.644 428.763L395.26 410.294C396.987 412.475 398 415.22 398 418.159V443.008C398 446.513 395.151 449.353 391.638 449.353H369.368V440.563C369.367 436.061 371.286 431.771 374.644 428.763Z" fill="#E4EAF6"/>
<path d="M255.924 428.763L235.309 410.294C233.582 412.475 232.569 415.22 232.569 418.159V443.008C232.569 446.513 235.418 449.353 238.931 449.353H261.201V440.563C261.201 436.061 259.283 431.771 255.924 428.763Z" fill="#E4EAF6"/>
<path d="M323.237 449.354H307.331L309.32 420.798H321.25L323.237 449.354Z" fill="#5B5D6E"/>
<path d="M323.237 414.453H307.331V416.761C307.331 420.743 310.568 423.972 314.561 423.972H316.007C320 423.972 323.237 420.744 323.237 416.761V414.453V414.453Z" fill="#515262"/>
<path d="M286.205 388.352L315.284 414.452C315.284 414.452 307.141 418.552 297.091 426.816C295.018 428.521 291.882 427.83 290.769 425.39L277.107 395.415L281.429 388.949C282.506 387.341 284.763 387.057 286.205 388.352Z" fill="#E4EAF6"/>
<path d="M344.363 388.352L315.284 414.452C315.284 414.452 323.428 418.552 333.478 426.816C335.551 428.521 338.687 427.83 339.799 425.39L353.462 395.415L349.139 388.949C348.063 387.341 345.805 387.057 344.363 388.352Z" fill="#E4EAF6"/>
<path d="M334.572 279.211L337.554 300.232C351.168 302.948 353.131 324.256 353.413 330.342C353.465 331.446 353.818 332.513 354.419 333.442L359.613 341.478C359.613 341.478 357.834 328.193 365.975 319.269C365.976 319.269 368.772 266.52 334.572 279.211Z" fill="#785550"/>
<path d="M362.805 340.121L359.213 354.453C358.787 356.151 357.258 357.343 355.502 357.343V357.343C353.573 357.343 351.946 355.91 351.706 354.002L349.869 339.343C349.377 335.422 352.442 331.96 356.403 331.96H356.415C360.702 331.959 363.844 335.975 362.805 340.121Z" fill="#F0C087"/>
<path d="M276.975 273.527L281.68 276.733C260.404 292.4 264.381 319.269 264.381 319.269C270.744 325.614 270.744 341.478 270.744 341.478L277.106 335.133C277.106 335.133 274.651 316.803 286.65 309.751C297.784 303.207 307.528 306.578 317.469 306.578C344.113 306.578 351.57 296.563 350.278 284.368C349.609 278.058 339.935 264.913 315.283 265.331C305.335 265.499 286.652 268.503 276.975 273.527Z" fill="#694B4B"/>
<path d="M275.12 303.801C275.12 303.801 271.74 290.515 281.681 276.733C260.405 292.4 264.382 319.269 264.382 319.269C270.745 325.614 270.745 341.478 270.745 341.478L277.107 335.133C277.107 335.133 274.652 316.803 286.651 309.751C297.785 303.207 307.529 306.578 317.47 306.578C321.804 306.578 325.579 306.288 328.943 305.792C308.425 306.477 296.329 290.978 275.12 303.801Z" fill="#5A4146"/>
<path d="M267.763 340.121L271.355 354.453C271.781 356.151 273.31 357.343 275.066 357.343V357.343C276.994 357.343 278.621 355.91 278.862 354.002L280.699 339.343C281.191 335.422 278.126 331.96 274.165 331.96H274.153C269.868 331.959 266.725 335.975 267.763 340.121Z" fill="#E6AF78"/>
<path d="M354.04 443.009H336.976C333.78 443.009 331.191 445.591 331.191 448.778V449.354H359.824V448.777C359.824 445.591 357.234 443.009 354.04 443.009Z" fill="#E4EAF6"/>
</g>
<g filter="url(#filter2_i_0_287)">
<path d="M199.381 182.786C213.46 182.786 226.165 188.318 235.437 197.37C241.961 203.741 246.768 211.955 249 221.007H246.253H241.617H229.599H215.52H214.49C209.683 221.343 207.451 223.522 207.451 226.036C207.451 229.389 211.4 230.227 216.035 230.898C224.105 231.736 231.659 233.915 231.659 242.8C231.659 251.35 223.933 254.87 215.349 254.87C207.451 254.87 201.442 252.523 198.523 245.65L204.704 242.633C206.249 246.656 210.885 248.5 215.52 248.5C220.156 248.5 224.448 246.991 224.448 242.8C224.448 239.28 220.671 237.939 215.52 237.268C207.622 236.43 200.24 234.418 200.24 225.869C200.24 218.325 207.622 215.14 214.49 214.972L215.177 214.805H239.385C237.153 210.111 234.063 205.92 230.457 202.232C222.388 194.52 211.571 189.827 199.381 189.827C187.363 189.827 176.375 194.52 168.477 202.232C160.579 209.943 155.6 220.672 155.6 232.574C155.6 239.615 157.489 246.153 160.579 252.02V264.593C153.025 255.876 148.561 244.812 148.561 232.574C148.561 218.828 154.226 206.255 163.498 197.37C172.597 188.318 185.303 182.786 199.381 182.786Z" fill="url(#paint2_linear_0_287)"/>
</g>
<g filter="url(#filter3_i_0_287)">
<path d="M176.217 253.378V270.04C182.694 273.743 190.365 275.931 198.376 275.931C203.319 275.931 208.092 275.258 212.523 273.743H212.694H227.864H232.807V269.704V260.952V259.437C238.432 252.2 241.841 242.943 241.841 233.181V232.676H249V233.181C249 243.784 245.591 253.546 239.966 261.625V280.812H237.068H232.807H213.716C208.773 282.158 203.66 283 198.376 283C187.467 283 177.24 279.634 169.058 273.743V272.06V264.654V253.378V250.685V247.824V215.509H196.671V222.409H176.217V232.676H195.478V239.408H176.217V247.824V253.378Z" fill="url(#paint3_linear_0_287)"/>
</g>
<path d="M59.625 104.076C73.714 109.867 74.5527 107.845 85.9913 99" stroke="#F05D5E" stroke-opacity="0.461872" stroke-width="3"/>
<path d="M303 369C311.632 377.972 321.375 378.229 331 370.289" stroke="white" stroke-opacity="0.68365" stroke-width="3"/>
<path d="M277.397 187.492C277.325 187.612 277.245 187.704 277.157 187.768C277.077 187.824 276.977 187.852 276.857 187.852C276.721 187.852 276.561 187.784 276.377 187.648C276.193 187.512 275.961 187.364 275.681 187.204C275.409 187.036 275.077 186.884 274.685 186.748C274.301 186.612 273.833 186.544 273.281 186.544C272.761 186.544 272.301 186.616 271.901 186.76C271.509 186.896 271.177 187.084 270.905 187.324C270.641 187.564 270.441 187.848 270.305 188.176C270.169 188.496 270.101 188.844 270.101 189.22C270.101 189.7 270.217 190.1 270.449 190.42C270.689 190.732 271.001 191 271.385 191.224C271.777 191.448 272.217 191.644 272.705 191.812C273.201 191.972 273.705 192.14 274.217 192.316C274.737 192.492 275.241 192.692 275.729 192.916C276.225 193.132 276.665 193.408 277.049 193.744C277.441 194.08 277.753 194.492 277.985 194.98C278.225 195.468 278.345 196.068 278.345 196.78C278.345 197.532 278.217 198.24 277.961 198.904C277.705 199.56 277.329 200.132 276.833 200.62C276.345 201.108 275.741 201.492 275.021 201.772C274.309 202.052 273.497 202.192 272.585 202.192C271.465 202.192 270.449 201.992 269.537 201.592C268.625 201.184 267.845 200.636 267.197 199.948L267.869 198.844C267.933 198.756 268.009 198.684 268.097 198.628C268.193 198.564 268.297 198.532 268.409 198.532C268.513 198.532 268.629 198.576 268.757 198.664C268.893 198.744 269.045 198.848 269.213 198.976C269.381 199.104 269.573 199.244 269.789 199.396C270.005 199.548 270.249 199.688 270.521 199.816C270.801 199.944 271.117 200.052 271.469 200.14C271.821 200.22 272.217 200.26 272.657 200.26C273.209 200.26 273.701 200.184 274.133 200.032C274.565 199.88 274.929 199.668 275.225 199.396C275.529 199.116 275.761 198.784 275.921 198.4C276.081 198.016 276.161 197.588 276.161 197.116C276.161 196.596 276.041 196.172 275.801 195.844C275.569 195.508 275.261 195.228 274.877 195.004C274.493 194.78 274.053 194.592 273.557 194.44C273.061 194.28 272.557 194.12 272.045 193.96C271.533 193.792 271.029 193.6 270.533 193.384C270.037 193.168 269.597 192.888 269.213 192.544C268.829 192.2 268.517 191.772 268.277 191.26C268.045 190.74 267.929 190.1 267.929 189.34C267.929 188.732 268.045 188.144 268.277 187.576C268.517 187.008 268.861 186.504 269.309 186.064C269.765 185.624 270.321 185.272 270.977 185.008C271.641 184.744 272.401 184.612 273.257 184.612C274.217 184.612 275.089 184.764 275.873 185.068C276.665 185.372 277.361 185.812 277.961 186.388L277.397 187.492ZM293.068 200.152C293.78 200.152 294.416 200.032 294.976 199.792C295.536 199.552 296.008 199.216 296.392 198.784C296.784 198.352 297.08 197.836 297.28 197.236C297.488 196.636 297.592 195.976 297.592 195.256V184.804H299.908V195.256C299.908 196.248 299.748 197.168 299.428 198.016C299.116 198.864 298.664 199.6 298.072 200.224C297.488 200.84 296.772 201.324 295.924 201.676C295.076 202.028 294.124 202.204 293.068 202.204C292.012 202.204 291.06 202.028 290.212 201.676C289.364 201.324 288.644 200.84 288.052 200.224C287.46 199.6 287.004 198.864 286.684 198.016C286.372 197.168 286.216 196.248 286.216 195.256V184.804H288.532V195.244C288.532 195.964 288.632 196.624 288.832 197.224C289.04 197.824 289.336 198.34 289.72 198.772C290.112 199.204 290.588 199.544 291.148 199.792C291.716 200.032 292.356 200.152 293.068 200.152ZM313.956 193.72C314.62 193.72 315.204 193.632 315.708 193.456C316.22 193.28 316.648 193.036 316.992 192.724C317.344 192.404 317.608 192.024 317.784 191.584C317.96 191.144 318.048 190.66 318.048 190.132C318.048 189.036 317.708 188.18 317.028 187.564C316.356 186.948 315.332 186.64 313.956 186.64H311.196V193.72H313.956ZM313.956 184.804C315.044 184.804 315.988 184.932 316.788 185.188C317.596 185.436 318.264 185.792 318.792 186.256C319.32 186.72 319.712 187.28 319.968 187.936C320.232 188.592 320.364 189.324 320.364 190.132C320.364 190.932 320.224 191.664 319.944 192.328C319.664 192.992 319.252 193.564 318.708 194.044C318.172 194.524 317.504 194.9 316.704 195.172C315.912 195.436 314.996 195.568 313.956 195.568H311.196V202H308.88V184.804H313.956ZM333.17 193.72C333.834 193.72 334.418 193.632 334.922 193.456C335.434 193.28 335.862 193.036 336.206 192.724C336.558 192.404 336.822 192.024 336.998 191.584C337.174 191.144 337.262 190.66 337.262 190.132C337.262 189.036 336.922 188.18 336.242 187.564C335.57 186.948 334.546 186.64 333.17 186.64H330.41V193.72H333.17ZM333.17 184.804C334.258 184.804 335.202 184.932 336.002 185.188C336.81 185.436 337.478 185.792 338.006 186.256C338.534 186.72 338.926 187.28 339.182 187.936C339.446 188.592 339.578 189.324 339.578 190.132C339.578 190.932 339.438 191.664 339.158 192.328C338.878 192.992 338.466 193.564 337.922 194.044C337.386 194.524 336.718 194.9 335.918 195.172C335.126 195.436 334.21 195.568 333.17 195.568H330.41V202H328.094V184.804H333.17ZM363.196 193.408C363.196 194.696 362.992 195.88 362.584 196.96C362.176 198.032 361.6 198.956 360.856 199.732C360.112 200.508 359.216 201.112 358.168 201.544C357.128 201.968 355.976 202.18 354.712 202.18C353.448 202.18 352.296 201.968 351.256 201.544C350.216 201.112 349.324 200.508 348.58 199.732C347.836 198.956 347.26 198.032 346.852 196.96C346.444 195.88 346.24 194.696 346.24 193.408C346.24 192.12 346.444 190.94 346.852 189.868C347.26 188.788 347.836 187.86 348.58 187.084C349.324 186.3 350.216 185.692 351.256 185.26C352.296 184.828 353.448 184.612 354.712 184.612C355.976 184.612 357.128 184.828 358.168 185.26C359.216 185.692 360.112 186.3 360.856 187.084C361.6 187.86 362.176 188.788 362.584 189.868C362.992 190.94 363.196 192.12 363.196 193.408ZM360.808 193.408C360.808 192.352 360.664 191.404 360.376 190.564C360.088 189.724 359.68 189.016 359.152 188.44C358.624 187.856 357.984 187.408 357.232 187.096C356.48 186.784 355.64 186.628 354.712 186.628C353.792 186.628 352.956 186.784 352.204 187.096C351.452 187.408 350.808 187.856 350.272 188.44C349.744 189.016 349.336 189.724 349.048 190.564C348.76 191.404 348.616 192.352 348.616 193.408C348.616 194.464 348.76 195.412 349.048 196.252C349.336 197.084 349.744 197.792 350.272 198.376C350.808 198.952 351.452 199.396 352.204 199.708C352.956 200.012 353.792 200.164 354.712 200.164C355.64 200.164 356.48 200.012 357.232 199.708C357.984 199.396 358.624 198.952 359.152 198.376C359.68 197.792 360.088 197.084 360.376 196.252C360.664 195.412 360.808 194.464 360.808 193.408ZM376.091 193.132C376.763 193.132 377.355 193.052 377.867 192.892C378.387 192.724 378.819 192.492 379.163 192.196C379.515 191.892 379.779 191.532 379.955 191.116C380.131 190.7 380.219 190.24 380.219 189.736C380.219 188.712 379.883 187.94 379.211 187.42C378.539 186.9 377.531 186.64 376.187 186.64H373.643V193.132H376.091ZM384.035 202H381.971C381.547 202 381.235 201.836 381.035 201.508L376.571 195.364C376.435 195.172 376.287 195.036 376.127 194.956C375.975 194.868 375.735 194.824 375.407 194.824H373.643V202H371.327V184.804H376.187C377.275 184.804 378.215 184.916 379.007 185.14C379.799 185.356 380.451 185.672 380.963 186.088C381.483 186.504 381.867 187.008 382.115 187.6C382.363 188.184 382.487 188.84 382.487 189.568C382.487 190.176 382.391 190.744 382.199 191.272C382.007 191.8 381.727 192.276 381.359 192.7C380.999 193.116 380.555 193.472 380.027 193.768C379.507 194.064 378.915 194.288 378.251 194.44C378.547 194.608 378.803 194.852 379.019 195.172L384.035 202ZM402.24 186.76H396.672V202H394.356V186.76H388.776V184.804H402.24V186.76Z" fill="white"/>
<path d="M14.3967 256.492C14.3247 256.612 14.2447 256.704 14.1567 256.768C14.0767 256.824 13.9767 256.852 13.8567 256.852C13.7207 256.852 13.5607 256.784 13.3767 256.648C13.1927 256.512 12.9607 256.364 12.6807 256.204C12.4087 256.036 12.0767 255.884 11.6847 255.748C11.3007 255.612 10.8327 255.544 10.2807 255.544C9.76069 255.544 9.30069 255.616 8.90069 255.76C8.50869 255.896 8.17669 256.084 7.90469 256.324C7.64069 256.564 7.44069 256.848 7.30469 257.176C7.16869 257.496 7.10069 257.844 7.10069 258.22C7.10069 258.7 7.21669 259.1 7.44869 259.42C7.68869 259.732 8.00069 260 8.38469 260.224C8.77669 260.448 9.21669 260.644 9.70469 260.812C10.2007 260.972 10.7047 261.14 11.2167 261.316C11.7367 261.492 12.2407 261.692 12.7287 261.916C13.2247 262.132 13.6647 262.408 14.0487 262.744C14.4407 263.08 14.7527 263.492 14.9847 263.98C15.2247 264.468 15.3447 265.068 15.3447 265.78C15.3447 266.532 15.2167 267.24 14.9607 267.904C14.7047 268.56 14.3287 269.132 13.8327 269.62C13.3447 270.108 12.7407 270.492 12.0207 270.772C11.3087 271.052 10.4967 271.192 9.58469 271.192C8.46469 271.192 7.44869 270.992 6.53669 270.592C5.62469 270.184 4.84469 269.636 4.19669 268.948L4.86869 267.844C4.93269 267.756 5.00869 267.684 5.09669 267.628C5.19269 267.564 5.29669 267.532 5.40869 267.532C5.51269 267.532 5.62869 267.576 5.75669 267.664C5.89269 267.744 6.04469 267.848 6.21269 267.976C6.38069 268.104 6.57269 268.244 6.78869 268.396C7.00469 268.548 7.24869 268.688 7.52069 268.816C7.80069 268.944 8.11669 269.052 8.46869 269.14C8.82069 269.22 9.21669 269.26 9.65669 269.26C10.2087 269.26 10.7007 269.184 11.1327 269.032C11.5647 268.88 11.9287 268.668 12.2247 268.396C12.5287 268.116 12.7607 267.784 12.9207 267.4C13.0807 267.016 13.1607 266.588 13.1607 266.116C13.1607 265.596 13.0407 265.172 12.8007 264.844C12.5687 264.508 12.2607 264.228 11.8767 264.004C11.4927 263.78 11.0527 263.592 10.5567 263.44C10.0607 263.28 9.55669 263.12 9.04469 262.96C8.53269 262.792 8.02869 262.6 7.53269 262.384C7.03669 262.168 6.59669 261.888 6.21269 261.544C5.82869 261.2 5.51669 260.772 5.27669 260.26C5.04469 259.74 4.92869 259.1 4.92869 258.34C4.92869 257.732 5.04469 257.144 5.27669 256.576C5.51669 256.008 5.86069 255.504 6.30869 255.064C6.76469 254.624 7.32069 254.272 7.97669 254.008C8.64069 253.744 9.40069 253.612 10.2567 253.612C11.2167 253.612 12.0887 253.764 12.8727 254.068C13.6647 254.372 14.3607 254.812 14.9607 255.388L14.3967 256.492ZM30.0679 269.152C30.7799 269.152 31.4159 269.032 31.9759 268.792C32.5359 268.552 33.0079 268.216 33.3919 267.784C33.7839 267.352 34.0799 266.836 34.2799 266.236C34.4879 265.636 34.5919 264.976 34.5919 264.256V253.804H36.9079V264.256C36.9079 265.248 36.7479 266.168 36.4279 267.016C36.1159 267.864 35.6639 268.6 35.0719 269.224C34.4879 269.84 33.7719 270.324 32.9239 270.676C32.0759 271.028 31.1239 271.204 30.0679 271.204C29.0119 271.204 28.0599 271.028 27.2119 270.676C26.3639 270.324 25.6439 269.84 25.0519 269.224C24.4599 268.6 24.0039 267.864 23.6839 267.016C23.3719 266.168 23.2159 265.248 23.2159 264.256V253.804H25.5319V264.244C25.5319 264.964 25.6319 265.624 25.8319 266.224C26.0399 266.824 26.3359 267.34 26.7199 267.772C27.1119 268.204 27.5879 268.544 28.1479 268.792C28.7159 269.032 29.3559 269.152 30.0679 269.152ZM50.9564 262.72C51.6204 262.72 52.2044 262.632 52.7084 262.456C53.2204 262.28 53.6484 262.036 53.9924 261.724C54.3444 261.404 54.6084 261.024 54.7844 260.584C54.9604 260.144 55.0484 259.66 55.0484 259.132C55.0484 258.036 54.7084 257.18 54.0284 256.564C53.3564 255.948 52.3324 255.64 50.9564 255.64H48.1964V262.72H50.9564ZM50.9564 253.804C52.0444 253.804 52.9884 253.932 53.7884 254.188C54.5964 254.436 55.2644 254.792 55.7924 255.256C56.3204 255.72 56.7124 256.28 56.9684 256.936C57.2324 257.592 57.3644 258.324 57.3644 259.132C57.3644 259.932 57.2244 260.664 56.9444 261.328C56.6644 261.992 56.2524 262.564 55.7084 263.044C55.1724 263.524 54.5044 263.9 53.7044 264.172C52.9124 264.436 51.9964 264.568 50.9564 264.568H48.1964V271H45.8804V253.804H50.9564ZM70.1704 262.72C70.8344 262.72 71.4184 262.632 71.9224 262.456C72.4344 262.28 72.8624 262.036 73.2064 261.724C73.5584 261.404 73.8224 261.024 73.9984 260.584C74.1744 260.144 74.2624 259.66 74.2624 259.132C74.2624 258.036 73.9224 257.18 73.2424 256.564C72.5704 255.948 71.5464 255.64 70.1704 255.64H67.4104V262.72H70.1704ZM70.1704 253.804C71.2584 253.804 72.2024 253.932 73.0024 254.188C73.8104 254.436 74.4784 254.792 75.0064 255.256C75.5344 255.72 75.9264 256.28 76.1824 256.936C76.4464 257.592 76.5784 258.324 76.5784 259.132C76.5784 259.932 76.4384 260.664 76.1584 261.328C75.8784 261.992 75.4664 262.564 74.9224 263.044C74.3864 263.524 73.7184 263.9 72.9184 264.172C72.1264 264.436 71.2104 264.568 70.1704 264.568H67.4104V271H65.0944V253.804H70.1704ZM100.196 262.408C100.196 263.696 99.9925 264.88 99.5845 265.96C99.1765 267.032 98.6005 267.956 97.8565 268.732C97.1125 269.508 96.2165 270.112 95.1685 270.544C94.1285 270.968 92.9765 271.18 91.7125 271.18C90.4485 271.18 89.2965 270.968 88.2565 270.544C87.2165 270.112 86.3245 269.508 85.5805 268.732C84.8365 267.956 84.2605 267.032 83.8525 265.96C83.4445 264.88 83.2405 263.696 83.2405 262.408C83.2405 261.12 83.4445 259.94 83.8525 258.868C84.2605 257.788 84.8365 256.86 85.5805 256.084C86.3245 255.3 87.2165 254.692 88.2565 254.26C89.2965 253.828 90.4485 253.612 91.7125 253.612C92.9765 253.612 94.1285 253.828 95.1685 254.26C96.2165 254.692 97.1125 255.3 97.8565 256.084C98.6005 256.86 99.1765 257.788 99.5845 258.868C99.9925 259.94 100.196 261.12 100.196 262.408ZM97.8085 262.408C97.8085 261.352 97.6645 260.404 97.3765 259.564C97.0885 258.724 96.6805 258.016 96.1525 257.44C95.6245 256.856 94.9845 256.408 94.2325 256.096C93.4805 255.784 92.6405 255.628 91.7125 255.628C90.7925 255.628 89.9565 255.784 89.2045 256.096C88.4525 256.408 87.8085 256.856 87.2725 257.44C86.7445 258.016 86.3365 258.724 86.0485 259.564C85.7605 260.404 85.6165 261.352 85.6165 262.408C85.6165 263.464 85.7605 264.412 86.0485 265.252C86.3365 266.084 86.7445 266.792 87.2725 267.376C87.8085 267.952 88.4525 268.396 89.2045 268.708C89.9565 269.012 90.7925 269.164 91.7125 269.164C92.6405 269.164 93.4805 269.012 94.2325 268.708C94.9845 268.396 95.6245 267.952 96.1525 267.376C96.6805 266.792 97.0885 266.084 97.3765 265.252C97.6645 264.412 97.8085 263.464 97.8085 262.408ZM113.091 262.132C113.763 262.132 114.355 262.052 114.867 261.892C115.387 261.724 115.819 261.492 116.163 261.196C116.515 260.892 116.779 260.532 116.955 260.116C117.131 259.7 117.219 259.24 117.219 258.736C117.219 257.712 116.883 256.94 116.211 256.42C115.539 255.9 114.531 255.64 113.187 255.64H110.643V262.132H113.091ZM121.035 271H118.971C118.547 271 118.235 270.836 118.035 270.508L113.571 264.364C113.435 264.172 113.287 264.036 113.127 263.956C112.975 263.868 112.735 263.824 112.407 263.824H110.643V271H108.327V253.804H113.187C114.275 253.804 115.215 253.916 116.007 254.14C116.799 254.356 117.451 254.672 117.963 255.088C118.483 255.504 118.867 256.008 119.115 256.6C119.363 257.184 119.487 257.84 119.487 258.568C119.487 259.176 119.391 259.744 119.199 260.272C119.007 260.8 118.727 261.276 118.359 261.7C117.999 262.116 117.555 262.472 117.027 262.768C116.507 263.064 115.915 263.288 115.251 263.44C115.547 263.608 115.803 263.852 116.019 264.172L121.035 271ZM139.24 255.76H133.672V271H131.356V255.76H125.776V253.804H139.24V255.76Z" fill="white"/>
</g>
<defs>
<filter id="filter0_d_0_287" x="-4" y="-2" width="142.773" height="186.822" filterUnits="userSpaceOnUse" color-interpolation-filters="sRGB">
<feFlood flood-opacity="0" result="BackgroundImageFix"/>
<feColorMatrix in="SourceAlpha" type="matrix" values="0 0 0 0 0 0 0 0 0 0 0 0 0 0 0 0 0 0 127 0" result="hardAlpha"/>
<feOffset dy="2"/>
<feGaussianBlur stdDeviation="2"/>
<feColorMatrix type="matrix" values="0 0 0 0 0 0 0 0 0 0 0 0 0 0 0 0 0 0 0.5 0"/>
<feBlend mode="normal" in2="BackgroundImageFix" result="effect1_dropShadow_0_287"/>
<feBlend mode="normal" in="SourceGraphic" in2="effect1_dropShadow_0_287" result="shape"/>
</filter>
<filter id="filter1_d_0_287" x="228.568" y="263.321" width="173.432" height="192.033" filterUnits="userSpaceOnUse" color-interpolation-filters="sRGB">
<feFlood flood-opacity="0" result="BackgroundImageFix"/>
<feColorMatrix in="SourceAlpha" type="matrix" values="0 0 0 0 0 0 0 0 0 0 0 0 0 0 0 0 0 0 127 0" result="hardAlpha"/>
<feOffset dy="2"/>
<feGaussianBlur stdDeviation="2"/>
<feColorMatrix type="matrix" values="0 0 0 0 0 0 0 0 0 0 0 0 0 0 0 0 0 0 0.5 0"/>
<feBlend mode="normal" in2="BackgroundImageFix" result="effect1_dropShadow_0_287"/>
<feBlend mode="normal" in="SourceGraphic" in2="effect1_dropShadow_0_287" result="shape"/>
</filter>
<filter id="filter2_i_0_287" x="148.561" y="182.786" width="100.439" height="81.8076" filterUnits="userSpaceOnUse" color-interpolation-filters="sRGB">
<feFlood flood-opacity="0" result="BackgroundImageFix"/>
<feBlend mode="normal" in="SourceGraphic" in2="BackgroundImageFix" result="shape"/>
<feColorMatrix in="SourceAlpha" type="matrix" values="0 0 0 0 0 0 0 0 0 0 0 0 0 0 0 0 0 0 127 0" result="hardAlpha"/>
<feOffset dy="1"/>
<feComposite in2="hardAlpha" operator="arithmetic" k2="-1" k3="1"/>
<feColorMatrix type="matrix" values="0 0 0 0 0 0 0 0 0 0 0 0 0 0 0 0 0 0 0.5 0"/>
<feBlend mode="normal" in2="shape" result="effect1_innerShadow_0_287"/>
</filter>
<filter id="filter3_i_0_287" x="169.058" y="215.509" width="79.9419" height="67.4913" filterUnits="userSpaceOnUse" color-interpolation-filters="sRGB">
<feFlood flood-opacity="0" result="BackgroundImageFix"/>
<feBlend mode="normal" in="SourceGraphic" in2="BackgroundImageFix" result="shape"/>
<feColorMatrix in="SourceAlpha" type="matrix" values="0 0 0 0 0 0 0 0 0 0 0 0 0 0 0 0 0 0 127 0" result="hardAlpha"/>
<feOffset dy="1"/>
<feComposite in2="hardAlpha" operator="arithmetic" k2="-1" k3="1"/>
<feColorMatrix type="matrix" values="0 0 0 0 0 0 0 0 0 0 0 0 0 0 0 0 0 0 0.5 0"/>
<feBlend mode="normal" in2="shape" result="effect1_innerShadow_0_287"/>
</filter>
<linearGradient id="paint0_linear_0_287" x1="448.215" y1="303.694" x2="340.095" y2="106.753" gradientUnits="userSpaceOnUse">
<stop stop-color="#69F7A5"/>
<stop offset="1" stop-color="#22C064"/>
</linearGradient>
<linearGradient id="paint1_linear_0_287" x1="414.99" y1="167.058" x2="306.871" y2="-29.8832" gradientUnits="userSpaceOnUse">
<stop stop-color="#69F7A5"/>
<stop offset="1" stop-color="#22C064"/>
</linearGradient>
<linearGradient id="paint2_linear_0_287" x1="198.78" y1="141.882" x2="118.665" y2="240.244" gradientUnits="userSpaceOnUse">
<stop stop-color="#69F7A5"/>
<stop offset="1" stop-color="#22C064"/>
</linearGradient>
<linearGradient id="paint3_linear_0_287" x1="209.029" y1="181.763" x2="142.494" y2="260.573" gradientUnits="userSpaceOnUse">
<stop stop-color="#69F7A5"/>
<stop offset="1" stop-color="#22C064"/>
</linearGradient>
<clipPath id="clip0_0_287">
<rect width="406" height="452" fill="white"/>
</clipPath>
</defs>
</svg>
