<?xml version="1.0" encoding="UTF-8"?>
<svg width="242px" height="273px" viewBox="0 0 242 273" version="1.1" xmlns="http://www.w3.org/2000/svg" xmlns:xlink="http://www.w3.org/1999/xlink">
    <!-- Generator: Sketch 46.2 (44496) - http://www.bohemiancoding.com/sketch -->
    <title>Group 11</title>
    <desc>Created with Sketch.</desc>
    <defs></defs>
    <g id="Page-1" stroke="none" stroke-width="1" fill="none" fill-rule="evenodd">
        <g id="iPhone-7" transform="translate(-67.000000, -3745.000000)">
            <g id="Group-11" transform="translate(67.000000, 3745.000000)">
                <g id="rotate" transform="translate(116.500000, 141.000000) rotate(90.000000) translate(-116.500000, -141.000000) translate(36.000000, 60.000000)" fill-rule="nonzero" fill="#4A4A4A">
                    <path d="M83.0801282,5.06481059 C102.572351,5.06481059 120.896953,12.7050774 134.679409,26.5750612 C160.190919,52.2460536 163.140168,93.4204313 141.574412,122.424069 L130.89219,133.176662 L130.89219,111.425833 L125.859342,111.425833 L125.859342,139.282291 L128.375766,141.814696 L156.056434,141.814696 L156.056434,136.749886 L134.46048,136.749886 L145.260973,125.87827 L145.492484,125.609835 C168.671269,94.5954674 165.553419,50.4809671 138.237633,22.9942401 C123.503969,8.16700707 103.916122,0 83.0801282,0 L83.0801282,5.06481059 Z" id="Shape"></path>
                    <path d="M19.4249593,39.5759309 L30.1072954,28.823338 L30.1072954,50.574167 L35.1401982,50.574167 L35.1401982,22.7177088 L32.6237468,20.1853035 L4.94278156,20.1853035 L4.94278156,25.2501141 L26.5389674,25.2501141 L15.738358,36.12173 L15.5068445,36.390165 C-7.67218925,67.4045326 -4.55178953,111.519033 22.7617738,139.00576 C37.4955967,153.832993 57.0836543,162 77.9198718,162 L77.9198718,156.935189 C58.4274393,156.935189 40.1026403,149.294923 26.3200361,135.424939 C0.808251929,109.753946 -2.13851265,68.5795687 19.4249593,39.5759309 Z" id="Shape"></path>
                </g>
                <g id="Group-12" transform="translate(76.000000, 100.000000)" fill-rule="nonzero" fill="#C7C7C7">
                    <path d="M39.7192059,0 C50.6937158,0 60.6336601,4.35009311 67.8147627,11.3817505 C72.9470196,16.4072005 76.6795701,22.8032278 78.4038462,29.9540658 L76.2332869,29.9540658 L72.62245,29.9540658 L63.3113593,29.9540658 L52.2151358,29.9540658 L51.444283,29.9540658 L51.444283,29.9739292 C47.7523037,30.1725636 45.9671709,31.8212291 45.9671709,33.8870267 C45.9671709,36.4494103 49.0708677,37.1644941 52.6817046,37.6014898 C58.9702408,38.3563004 64.8327794,39.965239 64.8327794,46.9968963 C64.8327794,53.591558 58.8890984,56.4121664 52.1745646,56.4121664 C46.0077421,56.4121664 41.2609115,54.5648665 39.0294955,49.1620112 L43.7560404,46.7585351 C45.09489,49.9962756 48.5840133,51.4264432 52.255707,51.4264432 C55.8259727,51.4264432 59.1933824,50.2147734 59.1933824,46.9968963 C59.1933824,44.2160149 56.2113991,43.0837989 52.2151358,42.6666667 C46.0483133,41.9317194 40.3683451,40.3426443 40.3683451,33.7082557 C40.3683451,27.8485413 46.0483133,25.3258845 51.444283,25.1073867 L51.444283,25.1073867 L52.0325654,25.1073867 L70.8170315,25.1073867 C69.1130411,21.4127871 66.7396258,18.0955928 63.8590706,15.255121 C57.6719624,9.21663563 49.1520102,5.48230912 39.7192059,5.48230912 C30.3066872,5.48230912 21.7664494,9.21663563 15.5996268,15.255121 C9.41251866,21.3134699 5.59882575,29.6561142 5.59882575,38.8926133 C5.59882575,44.4146493 6.95796099,49.6188703 9.39223306,54.2073246 L9.39223306,64 C3.5296945,57.2265673 0,48.4667908 0,38.8926133 C0,28.1464929 4.44254652,18.4332713 11.6439347,11.3817505 C18.8250373,4.35009311 28.7649816,0 39.7192059,0 Z" id="Shape"></path>
                    <path d="M24.3438447,56.4249099 L24.3438447,69.6415554 C29.3920147,72.6619238 35.3050107,74.4052237 41.600139,74.4052237 C45.4415752,74.4052237 49.1422258,73.7565539 52.5814173,72.5808401 L52.7423151,72.5808401 L64.5481949,72.5808401 L68.3494066,72.5808401 L68.3494066,69.4388461 L68.3494066,62.4453757 L68.3494066,61.1885781 C72.7942097,55.4113634 75.4490242,48.1746418 75.4490242,40.3095215 L75.428912,39.9649157 L80.9798878,39.9649157 L81,40.3095215 C81,48.7624988 78.3652977,56.5870773 73.9003824,63.0332326 L73.9003824,78.1756164 L71.7081492,78.1756164 L68.3494066,78.1756164 L53.4663555,78.1756164 C49.7254805,79.3513303 45.7432587,80 41.600139,80 C33.0524408,80 25.1483339,77.2634246 18.6923077,72.601111 L18.6923077,71.2632297 L18.6923077,65.4049313 L18.6923077,56.4249099 L18.6923077,54.2964623 L18.6923077,51.9855765 L18.6923077,26.3225806 L40.1922829,26.3225806 L40.1922829,31.7957314 L24.3438447,31.7957314 L24.3438447,40.0257285 L39.3475692,40.0257285 L39.3475692,45.275899 L24.3438447,45.275899 L24.3438447,51.9855765 L24.3438447,56.4249099 Z" id="Shape"></path>
                </g>
                <g id="Woman">
                    <g id="Shape" fill-rule="nonzero">
                        <path d="M40.9736981,0 C2.82410063,0 7.05457862,46.4696445 7.22889308,80.1454787 C7.23559748,81.4173175 7.90036478,82.5641422 8.98802516,83.2207251 C13.2159245,85.7731848 24.8248553,91.7413223 40.9742138,91.7413223 C57.1235723,91.7413223 68.7330189,85.7737014 72.9604025,83.2207251 C74.0480629,82.5641422 74.7133459,81.4173175 74.7195346,80.1454787 C74.8928176,46.4696445 79.1232956,0 40.9736981,0 Z" fill="#694B4B"></path>
                        <path d="M38.515761,0.0955687204 C3.03503145,2.08804739 7.05818868,47.2186967 7.22889308,80.1454787 C7.23559748,81.4173175 7.90036478,82.5641422 8.98802516,83.2207251 C13.2159245,85.7731848 24.8253711,91.7413223 40.9742138,91.7413223 L50.6141132,24.1422085" fill="#5A4146"></path>
                        <path d="M40.9736981,0 C19.2818616,0 17.775434,26.2550521 17.775434,26.2550521 C30.2786289,24.1427251 37.9608428,29.4238009 50.6146289,24.1427251 L40.9736981,91.7408057 C57.1230566,91.7408057 68.7325031,85.7726682 72.9598868,83.2202085 C74.0475472,82.5636256 74.7128302,81.4168009 74.7190189,80.1449621 C74.8928176,46.4696445 79.1232956,0 40.9736981,0 Z" fill="#694B4B"></path>
                        <path d="M74.7185031,80.1454787 C74.8680629,51.2088199 77.9866415,12.8527014 54.6630566,2.62323223 C54.2566667,4.74020853 53.5196981,10.6499716 55.4340629,14.4856351 C60.2545283,24.1427251 65.0749937,24.1427251 69.8954591,31.3852844 C74.7159245,57.9415071 60.6851572,86.1291137 56.0250818,89.9658104 L56.0250818,89.9658104 C64.2818113,87.9986445 70.2002516,84.8862038 72.9588553,83.2207251 C74.0470314,82.5636256 74.7123145,81.4173175 74.7185031,80.1454787 Z" fill="#785550"></path>
                        <path d="M77.4972201,87.4696588 L55.9905283,78.4934313 C54.1937484,77.7438626 53.0240881,75.9859147 53.0240881,74.0363128 L53.0240881,68.2019716 L28.9227925,68.2019716 L28.9227925,74.0363128 C28.9227925,75.9859147 27.7526164,77.7438626 25.9563522,78.4934313 L4.44966038,87.4696588 C1.75500629,88.5942701 0,91.2314502 0,94.1548199 L0,103.81191 C0,106.478536 2.15778616,108.640455 4.82046541,108.640455 L77.1264151,108.640455 C79.7885786,108.640455 81.9468805,106.479052 81.9468805,103.81191 L81.9468805,94.1548199 C81.9468805,91.2314502 80.1918742,88.5942701 77.4972201,87.4696588 Z" fill="#E6AF78"></path>
                        <path d="M77.4972201,87.4696588 L56.7032579,78.7909858 L40.9736981,85.5908294 L25.2441384,78.7909858 L4.4501761,87.4696588 C1.75552201,88.5942701 0.00051572327,91.2314502 0.00051572327,94.1548199 L0.00051572327,103.81191 C0.00051572327,106.478536 2.15830189,108.640455 4.82098113,108.640455 L77.1269308,108.640455 C79.7890943,108.640455 81.9473962,106.479052 81.9473962,103.81191 L81.9473962,94.1548199 C81.9468805,91.2314502 80.1918742,88.5942701 77.4972201,87.4696588 Z" fill="#B4E1FA"></path>
                        <path d="M53.0240881,68.2019716 L28.9227925,68.2019716 L28.9227925,74.0363128 C28.9227925,75.9859147 27.7526164,77.7438626 25.9563522,78.4934313 L22.5969308,79.8949336 C48.3016101,86.460763 53.0240881,68.2019716 53.0240881,68.2019716 Z" fill="#D29B6E"></path>
                    </g>
                    <g id="Group" transform="translate(0.000000, 74.388626)"></g>
                    <path d="M11.7476604,96.8090474 L2.07320755,89.1010427 C0.776679245,90.428673 0,92.2243318 0,94.1548199 L0,103.81191 C0,106.478536 2.15778616,108.640455 4.82046541,108.640455 L14.4613962,108.640455 L14.4613962,102.464133 C14.4613962,100.264502 13.462956,98.1831706 11.7476604,96.8090474 Z" id="Shape" fill="#A0D2F0" fill-rule="nonzero"></path>
                    <path d="M81.9468805,103.812427 L81.9468805,94.1553365 C81.9468805,92.2393128 81.1825786,90.4560521 79.9051321,89.1310047 L70.1997358,96.8085308 C68.4844403,98.182654 67.486,100.263986 67.486,102.464133 L67.486,108.640455 L77.1269308,108.640455 C79.7885786,108.640455 81.9468805,106.479052 81.9468805,103.812427 Z" id="Shape" fill="#A0D2F0" fill-rule="nonzero"></path>
                    <path d="M41.1072704,103.812427 L40.8390943,103.812427 C39.581761,103.812427 38.5626918,102.791649 38.5626918,101.532209 L38.5626918,85.5965118 L43.3831572,85.5965118 L43.3831572,101.532209 C43.383673,102.791649 42.3646038,103.812427 41.1072704,103.812427 Z" id="Shape" fill="#A0D2F0" fill-rule="nonzero"></path>
                    <path d="M40.9736981,85.5908294 L27.1786164,75.227564 C26.2931195,74.5621991 25.0316604,74.7791659 24.417434,75.7012749 L21.6913208,79.796782 L30.1481509,91.6566019 C30.7912579,92.558564 32.0578742,92.7347204 32.9217107,92.0419763 L40.9736981,85.5908294 Z" id="Shape" fill="#A0D2F0" fill-rule="nonzero"></path>
                    <path d="M40.9736981,85.5908294 L54.7687799,75.227564 C55.6542767,74.5621991 56.9157358,74.7791659 57.5299623,75.7012749 L60.2560755,79.796782 L51.7992453,91.6566019 C51.1561384,92.558564 49.889522,92.7347204 49.0256855,92.0419763 L40.9736981,85.5908294 Z" id="Shape" fill="#A0D2F0" fill-rule="nonzero"></path>
                    <path d="M53.0240881,21.7281943 C40.9731824,33.7992986 17.3231447,24.1422085 17.3231447,43.455872 L18.8197736,57.6826967 C19.1080629,60.8653934 20.9502264,63.6983602 23.7387421,65.2501896 L37.4616226,72.8869052 C39.645195,74.102436 42.3006541,74.102436 44.4847421,72.8869052 L58.2076226,65.2501896 C60.9961384,63.6978436 62.8383019,60.8648768 63.1265912,57.6826967 L64.8542642,40.7861469 C64.9770063,39.5850806 65.0033082,38.376782 64.9630818,37.1715829 C64.0615975,31.0267725 55.4350943,26.5562227 53.0240881,21.7281943 Z" id="Shape" fill="#F0C087" fill-rule="nonzero"></path>
                    <path d="M17.3236604,43.455872 L18.8202893,57.6826967 C19.1085786,60.8653934 20.9507421,63.6983602 23.7392579,65.2501896 L37.4621384,72.8869052 C38.9773333,73.7299763 40.7153208,73.9490095 42.3692453,73.6214929 L42.3692453,73.6214929 C42.3692453,73.6214929 35.4497862,71.521564 31.3327673,60.3560379 C30.0718239,56.9351943 28.3199119,38.8287962 29.8263396,36.6162512 C32.8036101,32.2417867 49.4093836,31.7877062 54.3159748,23.6731469 C54.0735849,23.3719763 53.849761,23.0702891 53.6450189,22.7680853 C53.6285157,22.7438057 53.6084025,22.7190095 53.5918994,22.6952464 C53.3789057,22.3744455 53.1855094,22.0526114 53.0240881,21.7292275 C40.9736981,33.7992986 17.3236604,24.1422085 17.3236604,43.455872 Z" id="Shape" fill="#E6AF78" fill-rule="nonzero"></path>
                    <path d="M58.1127296,103.812427 L52.7564277,103.812427 C50.2422767,103.812427 48.2036226,105.854498 48.2036226,108.372863 L48.2036226,108.641488 L62.6650189,108.641488 L62.6650189,108.372863 C62.6655346,105.853464 60.6273962,103.812427 58.1127296,103.812427 Z" id="Shape" fill="#A0D2F0" fill-rule="nonzero"></path>
                </g>
                <g id="Man" transform="translate(141.000000, 161.000000)" fill-rule="nonzero">
                    <polygon id="Shape" fill="#E6AF78" points="68.1149179 79.2304516 68.1149179 65.7372903 33.2958154 65.7372903 33.2958154 79.2304516 50.7056256 94.6513548"></polygon>
                    <path d="M95.0347846,85.5421935 L71.0977846,79.9292903 C70.7367744,79.8446452 70.4037333,79.7011613 70.0924462,79.5261935 L50.7056256,90.795871 L32.0744923,78.9811613 C31.5922821,79.4338065 30.9935333,79.7698065 30.3134667,79.9292903 L6.37646667,85.5421935 C2.88083077,86.3618065 0.410733333,89.4694194 0.410733333,93.0472258 L0.410733333,108.144 C0.410733333,110.273548 2.14327179,111.998968 4.27929231,111.998968 L97.1309231,111.998968 C99.2679795,111.998968 100.999482,110.272516 100.999482,108.144 L100.999482,93.0472258 C101.000518,89.4699355 98.5299026,86.3618065 95.0347846,85.5421935 Z" id="Shape" fill="#EFF2FA"></path>
                    <path d="M33.2958154,65.7372903 L33.2958154,79.9736774 C55.2273179,87.8472258 68.1149179,68.1414194 68.1149179,68.1414194 L68.1149179,65.7372903 L33.2958154,65.7372903 L33.2958154,65.7372903 Z" id="Shape" fill="#D29B6E"></path>
                    <path d="M25.5581795,21.4023226 L27.2435846,58.3576774 C27.401559,61.8100645 29.0999128,65.0116129 31.8740462,67.0849032 L39.8727282,73.0627097 C41.8818513,74.564129 44.3255333,75.376 46.8365487,75.376 L54.5736667,75.376 C57.0852,75.376 59.5283641,74.5646452 61.5380051,73.0627097 L69.5366872,67.0849032 C72.3113385,65.0110968 74.0102103,61.8100645 74.1671487,58.3576774 L75.8525538,21.4023226 L25.5581795,21.4023226 Z" id="Shape" fill="#F0C087"></path>
                    <path d="M44.9025282,29.1122581 C52.6396462,29.1122581 64.246359,27.1845161 66.9997744,21.4023226 L25.5586974,21.4023226 L27.2441026,58.3576774 C27.4020769,61.8100645 29.1004308,65.0116129 31.8745641,67.0849032 L39.8732462,73.0627097 C41.8823692,74.564129 44.3260513,75.376 46.8370667,75.376 L50.7056256,75.376 C46.8370667,75.376 39.0989128,67.6660645 39.0989128,58.0273548 C39.0989128,53.3135484 39.0989128,40.6787097 39.0989128,34.896 C39.0989128,32.9682581 41.0334513,29.1122581 44.9025282,29.1122581 Z" id="Shape" fill="#E6AF78"></path>
                    <g id="Group" transform="translate(0.000000, 88.258065)" fill="#E4EAF6">
                        <path d="M86.7988821,11.232 L99.333759,0.0113548387 C100.384159,1.33677419 101,3.0043871 101,4.78967742 L101,19.8864516 C101,22.016 99.2674615,23.7414194 97.131441,23.7414194 L83.5907077,23.7414194 L83.5907077,18.4010323 C83.5901897,15.6660645 84.7566103,13.0596129 86.7988821,11.232 Z" id="Shape"></path>
                        <path d="M14.6123692,11.232 L2.07749231,0.0113548387 C1.02709231,1.33677419 0.411251282,3.0043871 0.411251282,4.78967742 L0.411251282,19.8864516 C0.411251282,22.016 2.14378974,23.7414194 4.27981026,23.7414194 L17.8205436,23.7414194 L17.8205436,18.4010323 C17.8205436,15.6660645 16.654641,13.0596129 14.6123692,11.232 Z" id="Shape"></path>
                    </g>
                    <polygon id="Shape" fill="#5B5D6E" points="55.5411949 112 45.8695385 112 47.0789487 94.6513548 54.3328205 94.6513548"></polygon>
                    <path d="M55.5411949,90.7963871 L45.8695385,90.7963871 L45.8695385,92.1987097 C45.8695385,94.6178065 47.8377436,96.5796129 50.2658872,96.5796129 L51.1448462,96.5796129 C53.5724718,96.5796129 55.5411949,94.6183226 55.5411949,92.1987097 L55.5411949,90.7963871 L55.5411949,90.7963871 Z" id="Shape" fill="#515262"></path>
                    <g id="Group" transform="translate(27.451282, 74.322581)" fill="#E4EAF6">
                        <path d="M5.57312821,0.616258065 L23.2543436,16.4732903 C23.2543436,16.4732903 18.3027538,18.964129 12.1919949,23.9845161 C10.9313077,25.0203871 9.02473846,24.6007742 8.34829744,23.1184516 L0.0409179487,4.90735484 L2.66898974,0.979096774 C3.32367692,0.00206451613 4.69624103,-0.170322581 5.57312821,0.616258065 Z" id="Shape"></path>
                        <path d="M40.935559,0.616258065 L23.2543436,16.4732903 C23.2543436,16.4732903 28.2059333,18.964129 34.3166923,23.9845161 C35.5773795,25.0203871 37.4839487,24.6007742 38.1603897,23.1184516 L46.4677692,4.90735484 L43.8396974,0.979096774 C43.1850103,0.00206451613 41.8124462,-0.170322581 40.935559,0.616258065 Z" id="Shape"></path>
                    </g>
                    <path d="M62.4330205,8.63174194 L64.246359,21.4023226 C72.5242154,23.0523871 73.7175692,35.9979355 73.8890103,39.6954839 C73.9206051,40.3664516 74.1355538,41.0147097 74.5007077,41.5788387 L77.659159,46.4614194 C77.659159,46.4614194 76.5776821,38.3896774 81.5277179,32.9682581 C81.5282359,32.9682581 83.2281436,0.921290323 62.4330205,8.63174194 Z" id="Shape" fill="#785550"></path>
                    <path d="M79.5999128,45.6366452 L77.4157231,54.3442581 C77.1567487,55.3754839 76.2270308,56.0996129 75.1595385,56.0996129 L75.1595385,56.0996129 C73.9869026,56.0996129 72.9976205,55.2294194 72.851559,54.0696774 L71.7343436,45.163871 C71.4354872,42.7819355 73.2990667,40.6787097 75.7075282,40.6787097 L75.7147795,40.6787097 C78.3210974,40.6781935 80.2318103,43.1179355 79.5999128,45.6366452 Z" id="Shape" fill="#F0C087"></path>
                    <path d="M27.4119179,5.17832258 L30.2730667,7.12619355 C17.3362615,16.644129 19.7545641,32.9682581 19.7545641,32.9682581 C23.6231231,36.8232258 23.6231231,46.4614194 23.6231231,46.4614194 L27.4916821,42.6064516 C27.4916821,42.6064516 25.9989538,31.4699355 33.2947795,27.1855484 C40.0648872,23.2098065 45.9897026,25.2578065 52.0341641,25.2578065 C68.2345641,25.2578065 72.7686872,19.1736774 71.982959,11.7646452 C71.5763692,7.93083871 65.6940256,-0.0552258065 50.7045897,0.198709677 C44.6559846,0.300903226 33.2958154,2.12593548 27.4119179,5.17832258 Z" id="Shape" fill="#694B4B"></path>
                    <path d="M26.2838256,23.5710968 C26.2838256,23.5710968 24.2286051,15.4993548 30.2735846,7.12619355 C17.3367795,16.644129 19.7550821,32.9682581 19.7550821,32.9682581 C23.623641,36.8232258 23.623641,46.4614194 23.623641,46.4614194 L27.4922,42.6064516 C27.4922,42.6064516 25.9994718,31.4699355 33.2952974,27.1855484 C40.0654051,23.2098065 45.9902205,25.2578065 52.0346821,25.2578065 C54.6694872,25.2578065 56.9650359,25.0818065 59.0104154,24.7803871 C46.5345846,25.1969032 39.1797128,15.780129 26.2838256,23.5710968 Z" id="Shape" fill="#5A4146"></path>
                    <path d="M21.8108205,45.6366452 L23.9950103,54.3442581 C24.2539846,55.3754839 25.1837026,56.0996129 26.2511949,56.0996129 L26.2511949,56.0996129 C27.4238308,56.0996129 28.4131128,55.2294194 28.5591744,54.0696774 L29.6763897,45.163871 C29.9752462,42.7819355 28.1116667,40.6787097 25.7032051,40.6787097 L25.6959538,40.6787097 C23.0906718,40.6781935 21.179441,43.1179355 21.8108205,45.6366452 Z" id="Shape" fill="#E6AF78"></path>
                    <path d="M74.2702205,108.145032 L63.8946718,108.145032 C61.9518462,108.145032 60.3772821,109.714065 60.3772821,111.650065 L60.3772821,112 L77.7870923,112 L77.7870923,111.649548 C77.7870923,109.714065 76.2125282,108.145032 74.2702205,108.145032 Z" id="Shape" fill="#E4EAF6"></path>
                </g>
            </g>
        </g>
    </g>
</svg>