<svg xmlns="http://www.w3.org/2000/svg" width="332" height="60" viewBox="0 0 332 60">
    <g fill="none" fill-rule="nonzero">
        <path fill="#4A4A4A" d="M80.165 43.41V29.528h18.719v-6.521h-18.72v-10.23h19.789V5.964H73.087V43.41h7.078zm36.571-26.953c-8.377 0-13.635 6.23-13.635 13.766 0 7.622 5.142 13.766 13.693 13.766 8.522 0 13.721-6.144 13.721-13.766 0-7.535-5.402-13.766-13.779-13.766zm.058 5.941c4.362 0 7.135 3.855 7.135 7.825 0 4.029-2.398 7.767-7.135 7.767-4.766 0-7.164-3.738-7.164-7.767 0-3.97 2.455-7.825 7.164-7.825zm18.372-5.39V30.86c0 8.201 4.593 12.983 10.89 12.983 3.67 0 6.183-1.304 8.927-3.97l.404 3.536h5.836V17.007h-6.471v13.477c0 4.028-2.716 7.42-6.73 7.42-4.16 0-6.356-3.073-6.356-7.072V17.007h-6.5zm31.805 0V43.41h6.529V29.47c0-4.87 3.148-6.695 6.557-6.695 2.138 0 3.38.608 4.709 1.71l2.946-5.68c-1.444-1.42-4.073-2.493-6.788-2.493-2.658 0-5.402.464-7.424 3.739l-.491-3.044h-6.038z"/>
        <path fill="#22C064" d="M219.315 12.08c-2.831-5.796-8.868-7.448-14.675-7.448-6.904.03-14.472 3.217-14.472 10.926 0 8.405 7.048 10.434 14.674 11.361 4.969.522 8.667 1.97 8.667 5.507 0 4.086-4.19 5.622-8.609 5.622-4.535 0-8.868-1.826-10.515-5.941l-5.893 3.043c2.802 6.869 8.666 9.216 16.293 9.216 8.348 0 15.714-3.594 15.714-11.94 0-8.956-7.28-10.984-15.079-11.94-4.477-.551-8.32-1.45-8.32-4.725 0-2.782 2.514-4.985 7.742-4.985 4.073 0 7.598 2.03 8.869 4.174l5.604-2.87zm24.352 23.679c-1.589 1.594-3.669 2.173-5.749 2.173-4.073 0-7.481-2.666-7.481-7.709 0-4.608 3.206-7.825 7.568-7.825 1.82 0 3.755.696 5.286 2.087l4.131-4.319c-2.889-2.84-5.777-3.912-9.504-3.912-7.655 0-14.01 4.608-14.01 13.97 0 9.39 6.355 13.997 14.01 13.997 3.871 0 7.078-1.188 10.14-4.173l-4.391-4.29zm20.192-19.302c-8.377 0-13.606 6.23-13.606 13.766 0 7.622 5.113 13.766 13.664 13.766 8.55 0 13.721-6.144 13.721-13.766 0-7.535-5.402-13.766-13.779-13.766zm.058 5.941c4.362 0 7.164 3.855 7.164 7.825 0 4.029-2.427 7.767-7.164 7.767-4.767 0-7.164-3.738-7.164-7.767 0-3.97 2.455-7.825 7.164-7.825zm18.199-5.39V43.41h6.528V29.47c0-4.87 3.15-6.695 6.558-6.695 2.137 0 3.38.608 4.708 1.71l2.947-5.68c-1.444-1.42-4.073-2.493-6.789-2.493-2.686 0-5.402.464-7.424 3.739l-.49-3.044h-6.038zm49.31 15.534c1.011-10.897-4.506-16.346-13.317-16.346-8.55 0-13.981 5.796-13.981 13.824 0 8.463 5.402 14.085 14.472 14.085 4.016 0 8.551-1.39 11.324-4.289l-4.16-4.115c-1.502 1.536-4.65 2.463-7.048 2.463-4.593 0-7.424-2.347-7.857-5.622h20.567zm-20.452-5.42c.954-3.42 3.842-5.13 7.367-5.13 3.726 0 6.384 1.71 6.817 5.13h-14.184z"/>
        <g fill="#4A4A4A">
            <path d="M29.414 0c8.128 0 15.489 3.263 20.807 8.536a29.127 29.127 0 0 1 7.842 13.93H38.098v.014c-2.735.15-4.057 1.386-4.057 2.935 0 1.922 2.299 2.458 4.973 2.786 4.657.566 8.999 1.773 8.999 7.047 0 4.946-4.402 7.061-9.375 7.061-4.566 0-8.082-1.385-9.734-5.437l3.5-1.803c.991 2.428 3.575 3.5 6.295 3.5 2.644 0 5.137-.908 5.137-3.321 0-2.086-2.208-2.935-5.168-3.248-4.566-.551-8.773-1.743-8.773-6.719 0-4.395 4.207-6.287 8.203-6.45h14.346a25.223 25.223 0 0 0-5.153-7.39 25.337 25.337 0 0 0-17.877-7.33c-6.97 0-13.295 2.801-17.862 7.33-4.581 4.544-7.406 10.801-7.406 17.728a24.66 24.66 0 0 0 2.81 11.486V48C2.614 42.92 0 36.35 0 29.17c0-8.06 3.29-15.345 8.623-20.634A29.452 29.452 0 0 1 29.414 0z"/>
            <path d="M17.585 42.212v9.972a24.5 24.5 0 0 0 12.782 3.595c2.846 0 5.587-.49 8.134-1.377h11.68v-8.595a26.055 26.055 0 0 0 5.259-15.754l-.015-.26h4.112l.015.26a30.395 30.395 0 0 1-5.26 17.145v11.425H39.158A28.768 28.768 0 0 1 30.367 60c-6.331 0-12.186-2.065-16.968-5.583V19.5h15.926v4.13h-11.74v6.21H28.7v3.96H17.585v8.413z"/>
        </g>
    </g>
</svg>
