<svg xmlns="http://www.w3.org/2000/svg" width="177" height="38" viewBox="0 0 177 38">
    <g fill="#9B9B9B" fill-rule="nonzero">
        <path d="M49.05 22.647v-7h9.51v-3.289h-9.51V7.2h10.054V3.765h-13.65v18.882h3.596zM67.63 9.055c-4.256 0-6.927 3.142-6.927 6.942 0 3.844 2.613 6.942 6.957 6.942 4.33 0 6.972-3.098 6.972-6.942 0-3.8-2.745-6.942-7.001-6.942zm.03 2.996c2.216 0 3.625 1.944 3.625 3.946 0 2.032-1.218 3.917-3.625 3.917-2.422 0-3.64-1.885-3.64-3.917 0-2.002 1.248-3.946 3.64-3.946zm9.335-2.718v6.986c0 4.136 2.333 6.547 5.533 6.547 1.864 0 3.14-.658 4.535-2.002l.205 1.783h2.965V9.333h-3.288v6.796c0 2.031-1.38 3.741-3.42 3.741-2.113 0-3.228-1.55-3.228-3.566V9.333h-3.302zm16.159 0v13.314h3.317v-7.03c0-2.455 1.6-3.376 3.331-3.376 1.086 0 1.717.307 2.393.862l1.497-2.864c-.734-.716-2.07-1.257-3.45-1.257-1.35 0-2.744.234-3.771 1.885l-.25-1.534h-3.067zM119.748 6.848c-1.438-2.923-4.506-3.756-7.456-3.756-3.508.015-7.353 1.623-7.353 5.51 0 4.238 3.581 5.261 7.456 5.729 2.524.263 4.403.994 4.403 2.777 0 2.06-2.128 2.835-4.374 2.835-2.304 0-4.505-.92-5.342-2.996l-2.994 1.535c1.424 3.463 4.403 4.647 8.278 4.647 4.241 0 7.984-1.812 7.984-6.021 0-4.516-3.699-5.54-7.662-6.021-2.274-.278-4.226-.731-4.226-2.383 0-1.403 1.276-2.513 3.933-2.513 2.07 0 3.86 1.023 4.506 2.104l2.847-1.447zm12.373 11.94c-.808.804-1.864 1.097-2.921 1.097-2.07 0-3.801-1.345-3.801-3.888 0-2.324 1.629-3.946 3.845-3.946.925 0 1.908.35 2.686 1.052l2.099-2.177c-1.468-1.432-2.936-1.973-4.83-1.973-3.889 0-7.117 2.324-7.117 7.044 0 4.735 3.228 7.059 7.118 7.059 1.967 0 3.596-.6 5.151-2.105l-2.23-2.162zm10.259-9.733c-4.257 0-6.913 3.142-6.913 6.942 0 3.844 2.598 6.942 6.942 6.942s6.971-3.098 6.971-6.942c0-3.8-2.744-6.942-7-6.942zm.029 2.996c2.216 0 3.64 1.944 3.64 3.946 0 2.032-1.233 3.917-3.64 3.917-2.422 0-3.64-1.885-3.64-3.917 0-2.002 1.248-3.946 3.64-3.946zm9.246-2.718v13.314h3.317v-7.03c0-2.455 1.6-3.376 3.332-3.376 1.086 0 1.717.307 2.392.862l1.497-2.864c-.734-.716-2.07-1.257-3.449-1.257-1.365 0-2.744.234-3.772 1.885l-.25-1.534h-3.067zm25.054 7.833c.513-5.495-2.29-8.242-6.766-8.242-4.345 0-7.104 2.923-7.104 6.97 0 4.268 2.745 7.104 7.353 7.104 2.04 0 4.344-.702 5.753-2.163l-2.113-2.076c-.763.775-2.363 1.243-3.581 1.243-2.334 0-3.772-1.184-3.992-2.836h10.45zm-10.392-2.733c.485-1.724 1.952-2.586 3.743-2.586 1.893 0 3.244.862 3.464 2.586h-7.207z"/>
        <g>
            <path d="M18.744 0c5.18 0 9.87 2.04 13.259 5.335A18.118 18.118 0 0 1 37 14.041H24.277v.01c-1.742.092-2.584.865-2.584 1.834 0 1.2 1.464 1.536 3.168 1.74 2.968.355 5.735 1.109 5.735 4.405 0 3.091-2.805 4.413-5.974 4.413-2.91 0-5.15-.866-6.203-3.398l2.23-1.127c.632 1.518 2.279 2.188 4.011 2.188 1.685 0 3.274-.568 3.274-2.076 0-1.304-1.407-1.834-3.293-2.03-2.91-.345-5.59-1.09-5.59-4.2 0-2.746 2.68-3.928 5.226-4.03h9.143a15.765 15.765 0 0 0-3.284-4.62c-2.92-2.83-6.94-4.58-11.392-4.58-4.442 0-8.472 1.75-11.382 4.58-2.92 2.84-4.72 6.751-4.72 11.08 0 2.59.642 5.029 1.79 7.18V30C1.666 26.825 0 22.719 0 18.23c0-5.036 2.097-9.59 5.495-12.895C8.884 2.04 13.575 0 18.745 0z"/>
            <path d="M11.63 26.58v6.403a15.152 15.152 0 0 0 13.143 1.423h7.339v-5.518c2.069-2.798 3.304-6.303 3.304-10.113l-.009-.167h2.584l.009.167c0 4.094-1.226 7.884-3.304 11.007v7.334h-9.511c-1.741.57-3.595.884-5.523.884-3.978 0-7.657-1.326-10.662-3.584V12h10.007v2.651H11.63v3.986h6.984v2.544H11.63v5.4z"/>
        </g>
    </g>
</svg>
