<svg xmlns="http://www.w3.org/2000/svg" width="79" height="77" viewBox="0 0 79 77">
    <path fill="#E3647D" fill-rule="nonzero" d="M77.55 42.855c3.478-12.318-1.7-24.212-12.329-28.291-7.08-2.718-15.015-1.428-20.988 3.228-1.26-7.523-6.056-13.611-13.024-16.286C20.582-2.574 8.774 2.799 3.118 14.281c-.288.492-1.703 3.123-2.36 8.046-.95 7.101.354 14.393 3.77 21.08l17.03 33.404 35.453-13.255c7.015-2.686 12.862-7.23 16.909-13.144 2.805-4.097 3.514-7 3.63-7.557zm-6.176 5.831c-3.695 5.4-9.049 9.557-15.472 12.014L23.046 72.986 7.27 42.038c-3.134-6.135-4.33-12.805-3.464-19.29.622-4.66 1.965-6.911 1.973-6.926l.076-.136C10.79 5.619 20.993.853 30.116 4.355c6.732 2.584 11.083 8.961 11.36 16.643l.13 3.617 2.517-2.602c5.263-5.438 13.115-7.245 20.006-4.6 9.122 3.501 13.516 13.871 10.415 24.797-.006.024-.515 2.598-3.17 6.476z"/>
</svg>
