<svg xmlns="http://www.w3.org/2000/svg" width="80" height="80" viewBox="0 0 80 80">
    <g fill="#9B9B9B" fill-rule="nonzero">
        <path d="M40 0C17.945 0 0 17.943 0 40s17.945 40 40 40 40-17.943 40-40S62.055 0 40 0zm0 76.923C19.642 76.923 3.077 60.358 3.077 40S19.642 3.077 40 3.077 76.923 19.642 76.923 40 60.358 76.923 40 76.923z"/>
        <path d="M58.85 23.594l-23.645 26.6L20.96 38.798a1.54 1.54 0 0 0-1.922 2.404l15.385 12.307a1.536 1.536 0 0 0 2.112-.18l24.616-27.692a1.537 1.537 0 0 0-.128-2.17 1.538 1.538 0 0 0-2.174.127z"/>
    </g>
</svg>
